<svg width="29" height="31" viewBox="0 0 29 31" fill="none" xmlns="http://www.w3.org/2000/svg">
<rect x="0.5" y="0.869385" width="27.7081" height="29.171" rx="13.8541" fill="#F3F3F3"/>
<g clip-path="url(#clip0_134_222)">
<path d="M10.7183 21.1131H8.10313V12.3004H10.7183V21.1131ZM9.40932 11.0983C8.57307 11.0983 7.89478 10.3735 7.89478 9.49843C7.89478 9.0781 8.05434 8.67499 8.33838 8.37777C8.62241 8.08055 9.00764 7.91357 9.40932 7.91357C9.811 7.91357 10.1962 8.08055 10.4803 8.37777C10.7643 8.67499 10.9239 9.0781 10.9239 9.49843C10.9239 10.3735 10.2453 11.0983 9.40932 11.0983ZM20.5061 21.1131H17.8966V16.8231C17.8966 15.8007 17.8769 14.4896 16.5369 14.4896C15.1772 14.4896 14.9689 15.6004 14.9689 16.7495V21.1131H12.3565V12.3004H14.8647V13.5026H14.9013C15.2504 12.8102 16.1033 12.0795 17.3757 12.0795C20.0224 12.0795 20.509 13.9033 20.509 16.2722V21.1131H20.5061Z" fill="black"/>
</g>
<rect x="0.5" y="0.869385" width="27.7081" height="29.171" rx="13.8541" stroke="#F9F9F9"/>
<defs>
<clipPath id="clip0_134_222">
<rect width="12.6142" height="15.0855" fill="white" transform="translate(7.89478 7.91211)"/>
</clipPath>
</defs>
</svg>
