<svg width="29" height="31" viewBox="0 0 29 31" fill="none" xmlns="http://www.w3.org/2000/svg">
<rect x="0.5" y="0.869385" width="27.7081" height="29.171" rx="13.8541" fill="#F3F3F3"/>
<g clip-path="url(#clip0_134_224)">
<path d="M19.4855 12.8289C19.4937 12.9453 19.4937 13.0618 19.4937 13.1783C19.4937 16.7306 16.8297 20.8236 11.9606 20.8236C10.4605 20.8236 9.06697 20.3827 7.89478 19.6174C8.10791 19.6423 8.31282 19.6506 8.53415 19.6506C9.7719 19.6506 10.9113 19.2264 11.8212 18.5026C10.6572 18.4776 9.68175 17.7039 9.34566 16.6391C9.50961 16.664 9.67355 16.6807 9.8457 16.6807C10.0834 16.6807 10.3211 16.6474 10.5425 16.5892C9.32928 16.3396 8.41937 15.2581 8.41937 13.952V13.9187C8.77183 14.1184 9.18173 14.2431 9.61614 14.2598C8.90299 13.7772 8.43577 12.9537 8.43577 12.0219C8.43577 11.5228 8.5669 11.0652 8.79644 10.6659C10.0998 12.2964 12.0589 13.3613 14.2557 13.4778C14.2148 13.2781 14.1901 13.0701 14.1901 12.8622C14.1901 11.3813 15.3705 10.175 16.8378 10.175C17.6002 10.175 18.2887 10.4995 18.7724 11.0236C19.3707 10.9071 19.9445 10.6825 20.4528 10.3747C20.256 10.9987 19.838 11.5228 19.2888 11.8555C19.8216 11.7973 20.338 11.6475 20.8134 11.4396C20.4528 11.972 20.002 12.4462 19.4855 12.8289Z" fill="black"/>
</g>
<rect x="0.5" y="0.869385" width="27.7081" height="29.171" rx="13.8541" stroke="#F9F9F9"/>
<defs>
<clipPath id="clip0_134_224">
<rect width="12.9187" height="11.3141" fill="white" transform="translate(7.89478 10.175)"/>
</clipPath>
</defs>
</svg>
