<svg width="29" height="31" viewBox="0 0 29 31" fill="none" xmlns="http://www.w3.org/2000/svg">
<rect x="0.5" y="0.869385" width="27.7081" height="29.171" rx="13.8541" fill="#F3F3F3"/>
<path d="M19.1865 10.7846L17.3756 19.703C17.239 20.3325 16.8827 20.4891 16.3764 20.1926L13.6172 18.0693L12.2859 19.4065C12.1386 19.5604 12.0153 19.6891 11.7314 19.6891L11.9296 16.7545L17.0435 11.9288C17.2658 11.7218 16.9953 11.6071 16.6979 11.8141L10.3759 15.9712L7.65423 15.0816C7.06221 14.8885 7.05151 14.4633 7.77744 14.1668L18.4231 9.88385C18.9159 9.69083 19.3472 9.99851 19.1865 10.7846Z" fill="black"/>
<rect x="0.5" y="0.869385" width="27.7081" height="29.171" rx="13.8541" stroke="#F9F9F9"/>
</svg>
