<svg width="29" height="31" viewBox="0 0 29 31" fill="none" xmlns="http://www.w3.org/2000/svg">
<rect x="0.5" y="0.869385" width="27.7081" height="29.171" rx="13.8541" fill="#F3F3F3"/>
<rect y="0.369385" width="28.7081" height="30.171" rx="14.3541" fill="#F3F3F3"/>
<g clip-path="url(#clip0_134_227)">
<path d="M22.1549 11.2438C21.9709 10.5262 21.4286 9.961 20.7401 9.76919C19.4922 9.42065 14.488 9.42065 14.488 9.42065C14.488 9.42065 9.48378 9.42065 8.23578 9.76919C7.54727 9.96103 7.00501 10.5262 6.82097 11.2438C6.48657 12.5446 6.48657 15.2585 6.48657 15.2585C6.48657 15.2585 6.48657 17.9725 6.82097 19.2733C7.00501 19.9909 7.54727 20.5325 8.23578 20.7244C9.48378 21.0729 14.488 21.0729 14.488 21.0729C14.488 21.0729 19.4921 21.0729 20.7401 20.7244C21.4286 20.5325 21.9709 19.9909 22.1549 19.2733C22.4893 17.9725 22.4893 15.2585 22.4893 15.2585C22.4893 15.2585 22.4893 12.5446 22.1549 11.2438ZM12.8513 17.7226V12.7945L17.0338 15.2586L12.8513 17.7226Z" fill="black"/>
</g>
<rect x="0.5" y="0.869385" width="27.7081" height="29.171" rx="13.8541" stroke="#F9F9F9"/>
<defs>
<clipPath id="clip0_134_227">
<rect width="16.0574" height="11.6522" fill="white" transform="translate(6.45923 9.42065)"/>
</clipPath>
</defs>
</svg>
