<svg width="26" height="26" viewBox="0 0 26 26" fill="none" xmlns="http://www.w3.org/2000/svg">
<rect width="26" height="26" rx="13" fill="#712532"/>
<path d="M20.1611 17.6267L17.5307 12.7461C17.8121 12.1066 17.9527 11.4389 17.9527 10.743C17.9527 9.84027 17.7277 9.00802 17.2776 8.2463C16.8368 7.48459 16.2367 6.88273 15.4771 6.44075C14.7175 5.99876 13.8923 5.77777 13.0014 5.77777C12.4576 5.77777 11.9324 5.86241 11.426 6.03168C10.929 6.20095 10.4789 6.44075 10.0757 6.75108C9.67245 7.052 9.31611 7.40465 9.00665 7.80902C8.6972 8.21339 8.45807 8.66948 8.28928 9.17729C8.12986 9.68511 8.05016 10.207 8.05016 10.743C8.05016 10.9876 8.06422 11.2274 8.09235 11.4624C8.12986 11.6975 8.18144 11.9232 8.24708 12.1395C8.31272 12.3558 8.39243 12.5721 8.48621 12.7884L5.84177 17.6267C5.74799 17.796 5.75737 17.9606 5.8699 18.1204C5.99181 18.2709 6.14654 18.3226 6.33408 18.2756L8.59874 17.7678L9.37237 19.926C9.43802 20.1047 9.5693 20.2034 9.76623 20.2222C9.7756 20.2222 9.78498 20.2222 9.79436 20.2222C9.97253 20.2222 10.1038 20.1423 10.1882 19.9824L12.4951 15.6801C12.6639 15.6989 12.8327 15.7083 13.0014 15.7083C13.0483 15.7083 13.0952 15.7083 13.1421 15.7083C13.1984 15.6989 13.2499 15.6942 13.2968 15.6942C13.3531 15.6942 13.4094 15.6895 13.4656 15.6801L15.8147 19.9824C15.8991 20.1423 16.0304 20.2222 16.2085 20.2222C16.2179 20.2222 16.2226 20.2222 16.2226 20.2222C16.232 20.2222 16.2413 20.2222 16.2507 20.2222C16.4383 20.2034 16.5649 20.1047 16.6305 19.926L17.4042 17.7678L19.6688 18.2756C19.7532 18.3038 19.8376 18.3038 19.922 18.2756C20.0064 18.238 20.072 18.1863 20.1189 18.1204C20.2408 17.9606 20.2549 17.796 20.1611 17.6267ZM9.87876 18.6565L9.31611 17.0766C9.28798 17.0108 9.24578 16.9543 9.18951 16.9073C9.13325 16.8509 9.06761 16.8133 8.99259 16.7945C8.92695 16.7757 8.85662 16.7757 8.7816 16.7945L7.10772 17.1753L9.02072 13.6912C9.67714 14.5752 10.5258 15.177 11.5667 15.4967L9.87876 18.6565ZM8.95039 10.743C8.95039 9.62398 9.34424 8.66948 10.1319 7.87955C10.929 7.08022 11.8855 6.68055 13.0014 6.68055C13.7329 6.68055 14.4081 6.86393 15.027 7.23068C15.6459 7.58803 16.1335 8.08174 16.4899 8.7118C16.8556 9.33246 17.0384 10.0095 17.0384 10.743C17.0384 11.1098 16.9915 11.4719 16.8978 11.8292C16.804 12.1771 16.668 12.5016 16.4899 12.8025C16.3211 13.094 16.1101 13.3667 15.8569 13.6207C15.6037 13.8652 15.327 14.0767 15.027 14.2554C14.7363 14.4247 14.4174 14.561 14.0705 14.6645C13.7235 14.7585 13.3672 14.8055 13.0014 14.8055C12.27 14.8055 11.5901 14.6222 10.9619 14.2554C10.3429 13.8887 9.85062 13.395 9.4849 12.7743C9.12856 12.1536 8.95039 11.4766 8.95039 10.743ZM17.2213 16.7945C17.1088 16.7663 17.0009 16.7804 16.8978 16.8368C16.804 16.8932 16.7337 16.9732 16.6868 17.0766L16.1241 18.6706L14.394 15.5108C14.9191 15.351 15.4021 15.1159 15.8428 14.8055C16.2929 14.4858 16.6774 14.105 16.9962 13.663L18.8952 17.1753L17.2213 16.7945Z" fill="white"/>
</svg>
