<svg width="84" height="84" viewBox="0 0 84 84" fill="none" xmlns="http://www.w3.org/2000/svg">
<rect width="84" height="84" rx="40" fill="#9E9691"/>
<path d="M24.619 58.48C24.1415 58.48 23.7502 58.8622 23.7502 59.3398C23.7502 59.8175 24.1415 60.1996 24.619 60.1996H59.0296C59.5072 60.1996 59.8985 59.8175 59.8985 59.3398C59.8985 58.8622 59.5072 58.48 59.0296 58.48H55.497V39.4046H59.0296C59.5072 39.4046 59.8985 39.0224 59.8985 38.5448C59.8985 38.0672 59.5071 37.685 59.0296 37.685H28.4782C28.4145 37.6683 28.3428 37.6555 28.2642 37.6555C28.1859 37.6555 28.1139 37.6683 28.0502 37.685H24.619C24.1415 37.685 23.7502 38.0672 23.7502 38.5448C23.7502 39.0224 24.1415 39.4046 24.619 39.4046H27.3982V58.48H24.619ZM38.1911 58.48V39.4046H45.1819V58.48H38.1911ZM53.7593 58.48H46.9195V39.4046H53.7593V58.48ZM29.1303 39.4046H36.4534V58.48H29.1303V39.4046Z" fill="white" stroke="white" stroke-width="0.4"/>
<path d="M62.9994 37.2171L42.0686 25.4191L20.9992 37.2184C20.8947 37.2765 20.7815 37.3042 20.6696 37.3042C20.4367 37.3042 20.2107 37.1844 20.0873 36.97L62.9994 37.2171ZM62.9994 37.2171C63.3189 37.3969 63.7276 37.2884 63.9118 36.9714L62.9994 37.2171ZM63.7611 35.8972L63.761 35.8971L42.4996 23.9126L42.4995 23.9125C42.2341 23.763 41.9076 23.7623 41.6417 23.9114C41.6417 23.9114 41.6417 23.9114 41.6416 23.9114L20.241 35.896C19.8235 36.1296 19.6756 36.6553 19.9139 37.0697L19.914 37.0698C20.0749 37.3494 20.369 37.5042 20.6696 37.5042C20.8147 37.5042 20.9615 37.4682 21.0964 37.3932L21.0969 37.3929L42.0683 25.6485L62.9012 37.3913L62.9013 37.3913C63.3148 37.6242 63.8449 37.4847 64.0847 37.0718L64.0848 37.0717C64.3247 36.658 64.1775 36.1324 63.7611 35.8972Z" fill="white" stroke="white" stroke-width="0.4"/>
</svg>
