<svg width="84" height="84" viewBox="0 0 84 84" fill="none" xmlns="http://www.w3.org/2000/svg">
<rect width="84" height="84" rx="40" fill="#712532"/>
<path d="M59.1346 26.1566C58.875 25.9269 58.5721 25.7547 58.226 25.6399C57.9087 25.4964 57.5769 25.4247 57.2308 25.4247C57.2019 25.4247 57.1731 25.4247 57.1442 25.4247C57.1154 25.4247 57.0865 25.4247 57.0577 25.4247C57.0577 25.4247 57.0433 25.439 57.0144 25.4677C56.9856 25.4677 56.9423 25.4677 56.8846 25.4677C56.8558 25.4677 56.8125 25.4677 56.7548 25.4677C56.726 25.4677 56.6683 25.4677 56.5817 25.4677C56.524 25.4677 56.4519 25.4677 56.3654 25.4677C56.3077 25.4677 56.2356 25.4677 56.149 25.4677C56.0625 25.4677 55.976 25.4677 55.8894 25.4677C53.8125 25.4677 51.9663 25.2668 50.351 24.865C49.5144 24.6641 48.6202 24.2622 47.6683 23.6595C46.7163 23.0568 45.7933 22.3966 44.899 21.6791C44.0337 20.9328 43.5577 20.531 43.4712 20.4736C43.0096 20.1579 42.5048 20 41.9567 20C41.6683 20 41.3942 20.0431 41.1346 20.1292C40.875 20.1866 40.6298 20.3014 40.399 20.4736C40.399 20.4736 40.3269 20.5453 40.1827 20.6888C40.0385 20.8324 39.8365 21.0189 39.5769 21.2485C39.3462 21.4494 39.0721 21.6934 38.7548 21.9804C38.4375 22.2674 38.0769 22.5545 37.6731 22.8415C37.2692 23.1285 36.851 23.4012 36.4183 23.6595C36.0144 23.9178 35.5673 24.1618 35.0769 24.3914C34.6154 24.5923 34.1538 24.7502 33.6923 24.865C32.0769 25.2668 30.2163 25.4677 28.1106 25.4677C27.9952 25.4677 27.8654 25.4677 27.7212 25.4677C27.6058 25.4677 27.5048 25.4677 27.4183 25.4677C27.3317 25.4677 27.2452 25.4677 27.1587 25.4677C27.101 25.4677 27.0577 25.4677 27.0288 25.4677C27 25.439 26.9712 25.4247 26.9423 25.4247C26.9135 25.4247 26.8846 25.4247 26.8558 25.4247C26.8269 25.4247 26.7981 25.4247 26.7692 25.4247C26.4231 25.4247 26.0769 25.4964 25.7308 25.6399C25.4135 25.7547 25.125 25.9413 24.8654 26.1996C24.2885 26.7449 24 27.4051 24 28.18V35.0685C24 38.5414 24.3173 41.7417 24.9519 44.6693C25.5865 47.5969 26.3654 50.0222 27.2885 51.9452C28.2404 53.8395 29.3654 55.5616 30.6635 57.1115C31.9615 58.6327 33.1587 59.7952 34.2548 60.5988C35.351 61.3738 36.4904 62.0483 37.6731 62.6223C38.8846 63.1963 39.7356 63.5408 40.226 63.6556C40.7163 63.7991 41.1202 63.8995 41.4375 63.9569C41.524 63.9856 41.6106 64 41.6971 64C41.7837 64 41.8702 64 41.9567 64C42.101 64 42.2596 63.9856 42.4327 63.9569C42.6346 63.9282 42.8942 63.8708 43.2115 63.7847C43.5288 63.6986 44.0913 63.4977 44.899 63.182C45.7356 62.8663 46.5433 62.4932 47.3221 62.0626C48.101 61.6608 49.0096 61.0581 50.0481 60.2544C51.0865 59.4507 52.0385 58.561 52.9038 57.5851C53.7981 56.5806 54.6923 55.332 55.5865 53.8395C56.4808 52.347 57.2452 50.7254 57.8798 48.9746C58.5144 47.2237 59.0192 45.1572 59.3942 42.775C59.7981 40.364 60 37.7952 60 35.0685V28.18C60 27.3764 59.7115 26.7019 59.1346 26.1566ZM57.2308 35.0685C57.2308 45.3151 54.4615 52.8206 48.9231 57.5851C46.5865 59.5369 44.2644 60.7567 41.9567 61.2446C41.726 61.2159 41.4231 61.1585 41.0481 61.0724C40.7019 60.9576 39.9952 60.6562 38.9279 60.1683C37.8894 59.6517 36.8942 59.0489 35.9423 58.3601C34.9904 57.6425 33.9231 56.5949 32.7404 55.2172C31.5865 53.8395 30.5913 52.2896 29.7548 50.5675C28.9183 48.8167 28.2115 46.6067 27.6346 43.9374C27.0577 41.2394 26.7692 38.2831 26.7692 35.0685V28.18C26.7981 28.18 26.8269 28.1944 26.8558 28.2231C26.9135 28.2231 26.9712 28.2231 27.0288 28.2231C27.0865 28.2231 27.1587 28.2231 27.2452 28.2231C27.3317 28.2231 27.4183 28.2231 27.5048 28.2231C27.5913 28.2231 27.6779 28.2231 27.7644 28.2231C27.8798 28.2231 27.9952 28.2231 28.1106 28.2231C30.4183 28.2231 32.5096 27.9935 34.3846 27.5342C35.5096 27.2759 36.6923 26.7449 37.9327 25.9413C39.2019 25.1376 40.1971 24.4057 40.9183 23.7456L41.9567 22.7554C42.2452 23.0424 42.6346 23.4155 43.125 23.8748C43.6442 24.3053 44.5817 24.9654 45.9375 25.8552C47.2933 26.7162 48.5337 27.2759 49.6587 27.5342C51.5337 27.9935 53.6106 28.2231 55.8894 28.2231C56.1202 28.2231 56.351 28.2231 56.5817 28.2231C56.8125 28.2231 56.9856 28.2087 57.101 28.18H57.2308C57.2308 28.7828 57.2308 31.0789 57.2308 35.0685Z" fill="white"/>
<path d="M39.2752 45.785L49.1835 36.0323C49.2495 35.9678 49.3266 35.9139 49.4147 35.8709C49.8771 35.591 50.3064 35.6448 50.7028 36.0323C50.9009 36.2261 51 36.4737 51 36.7751C51 37.055 50.9009 37.2918 50.7028 37.4856L40.167 47.8518L40.0349 47.981C39.8367 48.1963 39.5835 48.3039 39.2752 48.3039C38.989 48.3039 38.7468 48.1963 38.5486 47.981L33.2972 42.8786L33.1651 42.6848C33.1211 42.6202 33.0881 42.5556 33.0661 42.4911C33.044 42.4049 33.022 42.3296 33 42.265V42.0389C33.022 41.9528 33.044 41.8775 33.0661 41.8129C33.0881 41.7483 33.1211 41.6837 33.1651 41.6191C33.2092 41.533 33.2532 41.4684 33.2972 41.4254C33.5174 41.2101 33.7706 41.1024 34.0569 41.1024C34.3431 41.1024 34.5963 41.2101 34.8165 41.4254L39.2752 45.785Z" fill="white"/>
</svg>
