<svg width="84" height="84" viewBox="0 0 84 84" fill="none" xmlns="http://www.w3.org/2000/svg">
<rect width="84" height="84" rx="40" fill="#C78E66"/>
<path d="M43.3022 24.2931L41.9389 26.3606L40.5751 24.2922L40.5749 24.2919C40.1224 23.6167 39.5261 23.0578 38.7868 22.6154C38.0461 22.1721 37.2632 21.95 36.4389 21.95C35.122 21.95 33.999 22.415 33.0729 23.344C32.1466 24.2732 31.6833 25.4146 31.6833 26.7649C31.6833 27.2314 31.7763 27.7179 31.9614 28.2241C32.1335 28.695 32.3149 29.1116 32.5055 29.4735H23.3611C22.4106 29.4735 21.6033 29.8133 20.942 30.4917C20.2807 31.1701 19.95 31.9978 19.95 32.9718V58.5517C19.95 59.5257 20.2807 60.3534 20.942 61.0318C21.6033 61.7102 22.4106 62.05 23.3611 62.05H60.6389C61.5894 62.05 62.3967 61.7102 63.058 61.0318C63.7193 60.3534 64.05 59.5257 64.05 58.5517V32.9718C64.05 31.9978 63.7193 31.1701 63.058 30.4917C62.3967 29.8133 61.5894 29.4735 60.6389 29.4735H51.3106C51.5382 29.0357 51.7201 28.5975 51.8561 28.159C52 27.6952 52.0722 27.2513 52.0722 26.8276C52.0722 25.4363 51.6197 24.274 50.7136 23.3444C49.8074 22.4147 48.6739 21.95 47.3167 21.95C46.4928 21.95 45.7302 22.1614 45.0297 22.5842C44.3303 23.0062 43.7545 23.576 43.3024 24.2927C43.3023 24.2928 43.3022 24.2929 43.3022 24.2931ZM50.4133 38.9621L45.2121 31.4544H60.6389C60.9883 31.4544 61.3118 31.613 61.6103 31.9397C61.9093 32.2668 62.0556 32.6105 62.0556 32.9718V48.4077H21.9444V32.9718C21.9444 32.6105 22.0907 32.2668 22.3897 31.9397C22.6882 31.613 23.0117 31.4544 23.3611 31.4544H38.665L33.4035 38.9619L33.3761 39.0011L33.414 39.0302L34.8806 40.1587L34.922 40.1906L34.952 40.1479L41.878 30.2998L48.8648 40.1481L48.8949 40.1904L48.936 40.1587L50.4027 39.0302L50.4404 39.0012L50.4133 38.9621ZM21.9444 58.5517V53.5361V50.8901H62.0556V53.5361V58.5517C62.0556 58.9127 61.9095 59.2455 61.6114 59.5513C61.3133 59.8571 60.9895 60.0064 60.6389 60.0064H23.3611C23.0105 60.0064 22.6867 59.8571 22.3886 59.5513C22.0905 59.2455 21.9444 58.9127 21.9444 58.5517ZM38.3892 28.7676C37.8484 29.3224 37.1992 29.5989 36.4389 29.5989C35.6786 29.5989 35.0294 29.3224 34.4886 28.7676C33.9478 28.2128 33.6778 27.5461 33.6778 26.7649C33.6778 25.9837 33.9478 25.317 34.4886 24.7622C35.0294 24.2074 35.6786 23.9309 36.4389 23.9309C37.1992 23.9309 37.8484 24.2074 38.3892 24.7622C38.93 25.317 39.2 25.9837 39.2 26.7649C39.2 27.5461 38.93 28.2128 38.3892 28.7676ZM49.2982 28.767C48.7368 29.3223 48.077 29.5989 47.3167 29.5989C46.5979 29.5989 45.9688 29.323 45.4275 28.7676C44.8867 28.2128 44.6167 27.5461 44.6167 26.7649C44.6167 25.9837 44.8867 25.317 45.4275 24.7622C45.9688 24.2068 46.5979 23.9309 47.3167 23.9309C48.077 23.9309 48.7368 24.2074 49.2982 24.7628C49.8592 25.3178 50.1389 25.9842 50.1389 26.7649C50.1389 27.5455 49.8592 28.212 49.2982 28.767Z" fill="white" stroke="white" stroke-width="0.1"/>
</svg>
