<svg width="84" height="84" viewBox="0 0 84 84" fill="none" xmlns="http://www.w3.org/2000/svg">
<rect width="84" height="84" rx="40" fill="#ED6D1F"/>
<path d="M41.7378 64C36.5714 64 32.3235 62.3927 28.9941 59.1781C25.6647 55.9635 24 51.8735 24 46.908C24 45.9035 24.1148 44.8415 24.3444 43.7221C24.574 42.574 24.8324 41.5838 25.1194 40.7515C25.4064 39.9191 25.7221 39.0868 26.0665 38.2544C26.4397 37.3933 26.7123 36.805 26.8845 36.4892C27.0568 36.1448 27.2003 35.8865 27.3151 35.7143C27.6021 35.169 28.047 34.9393 28.6497 35.0254C28.9367 35.0541 29.1807 35.169 29.3816 35.3699C29.6112 35.5421 29.7547 35.7573 29.8121 36.0157C30.3575 38.1109 31.0176 39.7756 31.7926 41.0098C32.5388 42.1866 33.3425 43.062 34.2035 43.636C33.3712 40.1057 33.2707 36.6901 33.9022 33.3894C34.2753 31.409 34.8924 29.6008 35.7534 27.9648C36.6432 26.3001 37.5329 25.0228 38.4227 24.1331C39.3125 23.2146 40.274 22.411 41.3072 21.7221C42.3692 21.0333 43.1155 20.6027 43.546 20.4305C44.0052 20.2583 44.3783 20.1292 44.6654 20.0431C44.895 19.9856 45.1246 19.9856 45.3542 20.0431C45.5838 20.0718 45.7991 20.1722 46 20.3444C46.3731 20.6888 46.5023 21.1194 46.3875 21.636C46.3588 21.8656 46.3157 22.167 46.2583 22.5401C46.2009 22.8845 46.1435 23.6164 46.0861 24.7358C46.0287 25.8265 46.0287 26.9028 46.0861 27.9648C46.1722 29.0267 46.3588 30.2609 46.6458 31.6673C46.9615 33.0737 47.392 34.3796 47.9374 35.5851C48.0809 35.8434 48.2387 36.1448 48.411 36.4892C48.5832 36.805 48.7841 37.1494 49.0137 37.5225C49.1285 36.4605 49.3151 35.499 49.5734 34.638C50.2048 32.3705 51.4247 30.7202 53.2329 29.6869C53.3764 29.6008 53.4912 29.5434 53.5773 29.5147C53.8069 29.3999 54.0365 29.3568 54.2661 29.3855C54.5245 29.4142 54.7541 29.5147 54.955 29.6869C55.1559 29.8304 55.2994 30.0313 55.3855 30.2896C55.5003 30.5192 55.529 30.7632 55.4716 31.0215C55.4716 31.1076 55.4573 31.2224 55.4286 31.3659C55.4286 31.5095 55.4429 31.7965 55.4716 32.227C55.5003 32.6575 55.5577 33.1024 55.6438 33.5616C55.7586 34.0209 55.9452 34.5949 56.2035 35.2838C56.4905 35.9726 56.8493 36.6614 57.2798 37.3503C58.2557 38.9863 58.9159 40.4788 59.2603 41.8278C59.6334 43.1481 59.82 44.8415 59.82 46.908C59.82 48.8598 59.5329 50.7254 58.9589 52.5049C58.3849 54.2557 57.5525 55.8343 56.4618 57.2407C55.3999 58.6184 54.1226 59.8239 52.6301 60.8571C51.1663 61.8617 49.5016 62.6367 47.636 63.182C45.7704 63.7273 43.8043 64 41.7378 64ZM28.3053 40.1057C27.272 42.6888 26.7554 44.9419 26.7554 46.865C26.7554 51.0554 28.1618 54.4997 30.9746 57.1977C33.7873 59.8956 37.3751 61.2446 41.7378 61.2446C46.1866 61.2446 49.8461 59.8956 52.7162 57.1977C55.6151 54.4997 57.0646 51.0554 57.0646 46.865C57.0646 45.6595 56.9928 44.6406 56.8493 43.8082C56.7345 42.9472 56.5192 42.1435 56.2035 41.3973C55.9165 40.6223 55.486 39.7469 54.9119 38.771C53.9074 37.1063 53.2472 35.4416 52.9315 33.7769C52.6158 34.2648 52.3718 34.8102 52.1996 35.4129C51.97 36.274 51.7978 37.2642 51.683 38.3836C51.5682 39.4742 51.5108 40.2635 51.5108 40.7515C51.5395 41.2394 51.5682 41.5838 51.5969 41.7847C51.5969 42.1005 51.5108 42.3875 51.3386 42.6458C51.195 42.9041 50.9654 43.0907 50.6497 43.2055C50.5062 43.2342 50.3627 43.2629 50.2192 43.2916C50.0757 43.2916 49.9322 43.2629 49.7887 43.2055C49.6451 43.1481 49.516 43.0763 49.4012 42.9902C49.2864 42.9041 49.1859 42.8037 49.0998 42.6888C47.3777 40.2492 46.1579 38.2688 45.4403 36.7476C43.7469 33.0737 43.0868 28.6967 43.4599 23.6164C42.7997 24.0183 42.1683 24.4775 41.5656 24.9941C40.9628 25.5108 40.317 26.1709 39.6282 26.9746C38.9393 27.7782 38.3222 28.7828 37.7769 29.9883C37.2603 31.1937 36.8728 32.4997 36.6145 33.9061C36.4136 34.9967 36.3131 36.1592 36.3131 37.3933C36.3131 38.5988 36.3705 39.6608 36.4853 40.5793C36.6001 41.469 36.758 42.3444 36.9589 43.2055C37.1598 44.0378 37.3033 44.6262 37.3894 44.9706C37.5042 45.3151 37.5903 45.5447 37.6477 45.6595C37.7052 45.7743 37.7339 45.9035 37.7339 46.047C37.7339 46.1618 37.7195 46.2766 37.6908 46.3914C37.6908 46.5062 37.6621 46.621 37.6047 46.7358C37.5473 46.8506 37.4755 46.9654 37.3894 47.0802C37.0163 47.4821 36.5714 47.6256 36.0548 47.5108C35.9113 47.4821 35.7247 47.439 35.4951 47.3816C35.2942 47.2955 34.9211 47.1233 34.3757 46.865C33.8304 46.6067 33.2994 46.3053 32.7828 45.9609C32.2948 45.6164 31.7352 45.1429 31.1037 44.5401C30.501 43.9087 29.9556 43.2198 29.4677 42.4736C29.2668 42.1579 29.0659 41.7991 28.865 41.3973C28.6641 40.9667 28.4775 40.5362 28.3053 40.1057Z" fill="white"/>
</svg>
