<svg width="84" height="84" viewBox="0 0 84 84" fill="none" xmlns="http://www.w3.org/2000/svg">
<rect width="84" height="84" rx="40" fill="#26B7BC"/>
<path d="M22.9865 61.594C22.9865 62.9195 24.061 63.994 25.3865 63.994H28.2967C29.6222 63.994 30.6967 62.9195 30.6967 61.594L30.6967 56.7917L30.6967 56.2917L22.9865 61.594ZM22.9865 61.594L22.976 56.2917L22.9865 61.594ZM25.3351 35.8743H25.3345C25.1823 35.8743 25.0062 35.8502 24.8437 35.7607C24.6661 35.6628 24.5401 35.5056 24.4817 35.3133L24.9601 35.168L24.4817 35.3133C24.4323 35.1509 24.4384 34.9887 24.4624 34.8495L24.4674 34.8208L24.4756 34.7929L27.3877 24.9267C27.448 24.5677 27.5632 24.2238 27.7316 23.8963C27.9058 23.5313 28.129 23.2145 28.4056 22.955C28.6979 22.678 29.0236 22.4587 29.3822 22.3012C29.7432 22.1427 30.1148 22.0591 30.4937 22.0591H53.1031C53.3012 22.0591 53.4959 22.0918 53.6855 22.1542C53.8679 22.1904 54.0445 22.2537 54.2147 22.3401C54.3944 22.4074 54.5601 22.502 54.7108 22.6219C54.8755 22.7136 55.0247 22.8233 55.1529 22.9539C55.2997 23.0802 55.4322 23.2212 55.5499 23.3763C55.6731 23.5386 55.7792 23.7149 55.8689 23.9042C55.954 24.0836 56.0258 24.2647 56.0836 24.4475C56.1395 24.6244 56.1812 24.811 56.2098 25.0063L59.3456 34.8223L59.3514 34.8405L59.3558 34.8591C59.4203 35.1311 59.3474 35.3969 59.1562 35.5985L59.1218 35.6347L59.0809 35.6634C58.8736 35.8091 58.615 35.8343 58.4147 35.8343L25.3351 35.8743ZM25.3351 35.8743L58.4141 35.8343L25.3351 35.8743ZM30.2157 43.5554L30.223 43.5631L30.2307 43.5704C30.6131 43.9369 30.7967 44.3669 30.7967 44.8895C30.7967 45.412 30.6131 45.842 30.2307 46.2085L30.223 46.2158L30.2157 46.2235C29.8492 46.6059 29.4193 46.7895 28.8967 46.7895C28.3735 46.7895 27.9295 46.6051 27.5402 46.2159C27.1755 45.8512 26.9967 45.419 26.9967 44.8895C26.9967 44.3599 27.1755 43.9277 27.5402 43.563C27.9295 43.1738 28.3735 42.9895 28.8967 42.9895C29.4193 42.9895 29.8492 43.173 30.2157 43.5554ZM56.6157 43.5554L56.623 43.5631L56.6307 43.5704C57.0131 43.9369 57.1967 44.3669 57.1967 44.8895C57.1967 45.412 57.0131 45.842 56.6307 46.2085L56.623 46.2158L56.6157 46.2235C56.2492 46.6059 55.8193 46.7895 55.2967 46.7895C54.7735 46.7895 54.3295 46.6051 53.9402 46.2159C53.5755 45.8512 53.3967 45.419 53.3967 44.8895C53.3967 44.3599 53.5755 43.9277 53.9402 43.563C54.3295 43.1738 54.7735 42.9895 55.2967 42.9895C55.8193 42.9895 56.2492 43.173 56.6157 43.5554ZM60.8212 34.8078L60.8236 34.8151L60.8261 34.8223C60.9499 35.1698 61.2145 35.4642 61.4469 35.6799C61.6894 35.9049 61.9529 36.0946 62.137 36.2222L62.183 36.2541L62.2348 36.275C62.2855 36.2954 62.3223 36.3137 62.3477 36.3285C62.3643 36.3383 62.3728 36.3447 62.3755 36.3468C62.3759 36.3471 62.3762 36.3473 62.3763 36.3475L63.7658 37.7313C64.8473 38.8083 65.5 40.4737 65.5 42.2637L65.4998 48.7712C65.4998 50.3609 64.9942 52.107 64.1738 53.4681C63.3425 54.8473 62.2646 55.7151 61.174 55.7869L60.7069 55.8177V56.2858V61.594C60.7069 62.6433 59.8562 63.494 58.8069 63.494H55.8967C54.8473 63.494 53.9967 62.6433 53.9967 61.594V56.2918V55.7918H53.4967L30.6967 55.7917H30.1967V56.2917V61.594C30.1967 62.6433 29.346 63.494 28.2967 63.494H25.3865C24.3371 63.494 23.4865 62.6433 23.4865 61.594L23.4865 61.593L23.476 56.2907L23.4751 55.7917H22.976C21.859 55.7917 20.7471 54.9519 19.8822 53.5598C19.0292 52.1867 18.5001 50.3975 18.5001 48.7709L18.5 42.2271C18.5 40.4628 19.1343 38.8178 20.1907 37.7387L21.5293 36.3713C21.7577 36.138 22.0093 35.9618 22.2707 35.8432L22.3519 35.8063L22.4154 35.7437C22.6568 35.5054 22.8992 35.1862 23.0387 34.7753L23.042 34.7655L23.0449 34.7556L25.9659 24.8193L25.9773 24.7808L25.9823 24.741C26.0276 24.3827 26.1186 24.0213 26.2572 23.6561C26.3964 23.2893 26.5697 22.9487 26.7767 22.6336C26.9836 22.3185 27.2254 22.0271 27.5028 21.7591C27.7742 21.4969 28.0648 21.2855 28.3748 21.1221L28.3875 21.1154L28.3997 21.1081C28.7126 20.9196 29.0479 20.7781 29.4072 20.6834L29.4218 20.6796L29.4362 20.6748C29.793 20.5573 30.145 20.5 30.4937 20.5H53.1031C54.2018 20.5 55.1947 20.9084 56.0978 21.7627C56.9998 22.6159 57.4985 23.6249 57.6129 24.8064L57.6181 24.8601L57.6347 24.9115L60.8212 34.8078ZM19.7966 42.2271L19.7967 48.7709C19.7967 49.7883 20.1205 51.0273 20.6383 52.0187C20.8982 52.5163 21.2198 52.9763 21.5976 53.3183C21.9751 53.6599 22.4419 53.9117 22.976 53.9117L61.0238 53.9118C61.558 53.9118 62.0247 53.66 62.4022 53.3184C62.78 52.9765 63.1016 52.5165 63.3616 52.0188C63.8794 51.0275 64.2032 49.7885 64.2032 48.7711L64.2034 42.2636C64.2034 41.3743 63.7699 40.2241 63.1897 39.3132C62.895 38.8505 62.5449 38.4209 62.161 38.1012C61.784 37.7871 61.325 37.5388 60.8233 37.5388H23.1059C22.6077 37.5388 22.1556 37.7929 21.7884 38.1073C21.4136 38.4282 21.0721 38.8583 20.7851 39.3189C20.2202 40.2253 19.7966 41.3653 19.7966 42.2271Z" fill="white" stroke="white"/>
</svg>
