<svg width="84" height="84" viewBox="0 0 84 84" fill="none" xmlns="http://www.w3.org/2000/svg">
<rect width="84" height="84" rx="40" fill="#F3BE54"/>
<path d="M48.2322 46.2948L48.2325 46.2946L48.2271 46.2875C48.0705 46.0785 47.8065 45.9159 47.5312 45.9159H45.2398C44.8049 45.9159 44.4284 46.2928 44.4284 46.7279V51.4393H30.3695C28.4382 51.4393 26.8927 52.9865 26.8927 54.9194V57.6344C26.8927 59.5674 28.4382 61.1146 30.3695 61.1146H31.3038C31.5852 62.8065 33.0579 64.1103 34.8119 64.1103C36.5659 64.1103 38.0387 62.8065 38.32 61.1146H46.6417C46.9235 62.8068 48.3979 64.0635 50.1498 64.0635C51.9039 64.0635 53.3766 62.7597 53.6579 61.0677H55.0598C56.9907 61.0677 58.5359 59.5213 58.5367 57.5892C58.5842 55.9022 57.561 54.4336 56.1615 53.3578C54.777 52.2935 53.0061 51.5985 51.4768 51.445L48.2322 46.2948ZM56.9606 57.6344H56.9605L56.9607 57.6391C57.0046 58.6487 56.1708 59.4903 55.1066 59.4903H53.5984C53.1413 58.0359 51.8115 56.9159 50.1966 56.9159C48.5859 56.9159 47.2068 57.987 46.7917 59.4903H38.2723H38.272H38.2718H38.2715H38.2712H38.2709H38.2707H38.2704H38.2701H38.2698H38.2696H38.2693H38.269H38.2688H38.2685H38.2682H38.2679H38.2677H38.2674H38.2671H38.2668H38.2666H38.2663H38.266H38.2657H38.2655H38.2652H38.2649H38.2646H38.2644H38.2641H38.2638H38.2635H38.2633H38.263H38.2627H38.2624H38.2622H38.2619H38.2616H38.2613H38.2611H38.2608H38.2605H38.2603H38.26H38.2597H38.2594H38.2592H38.2589H38.2586H38.2583H38.2581H38.2578H38.2575H38.2572H38.257H38.2567H38.2564H38.2561H38.2559H38.2556H38.2553H38.255H38.2548H38.2545H38.2542H38.2539H38.2537H38.2534H38.2531H38.2529H38.2526H38.2523H38.252H38.2518H38.2515H38.2512H38.2509H38.2507H38.2504H38.2501H38.2498H38.2496H38.2493H38.249H38.2487H38.2485H38.2482H38.2479H38.2476H38.2474H38.2471H38.2468H38.2465H38.2463H38.246H38.2457H38.2454H38.2452H38.2449H38.2446H38.2444H38.2441H38.2438H38.2435H38.2433H38.243H38.2427H38.2424H38.2422H38.2419H38.2416H38.2413H38.2411H38.2408H38.2405H38.2402H38.24H38.2397H38.2394H38.2391H38.2389H38.2386H38.2383H38.238H38.2378H38.2375H38.2372H38.237H38.2367H38.2364H38.2361H38.2359H38.2356H38.2353H38.235H38.2348H38.2345H38.2342H38.2339H38.2337H38.2334H38.2331H38.2328H38.2326H38.2323H38.232H38.2317H38.2315H38.2312H38.2309H38.2306H38.2304H38.2301H38.2298H38.2296H38.2293H38.229H38.2287H38.2285H38.2282H38.2279H38.2276H38.2274H38.2271H38.2268H38.2265H38.2263H38.226H38.2257H38.2254H38.2252H38.2249H38.2246H38.2243H38.2241H38.2238H38.2235H38.2232H38.223H38.2227H38.2224H38.2222H38.2219H38.2216H38.2213H38.2211H38.2208H38.2205H38.2202H38.22H38.2197H38.2194H38.2191H38.2189H38.2186H38.2183H38.218H38.2178H38.2175H38.2172H38.2169H38.2169C37.8015 57.9862 36.4209 56.9159 34.7651 56.9159C33.1544 56.9159 31.7753 57.987 31.3603 59.4903H30.3227C29.3081 59.4903 28.4687 58.6503 28.4687 57.6344V54.9194C28.4687 53.9035 29.3081 53.0635 30.3227 53.0635H50.7578C52.1103 53.0635 53.6667 53.6272 54.8853 54.4885C56.1078 55.3527 56.9606 56.4941 56.9606 57.6344ZM46.0513 47.5401H47.0961L49.5306 51.4393H46.0513V47.5401ZM34.8119 62.4393C33.7505 62.4393 32.8644 61.5524 32.8644 60.4897C32.8644 59.4269 33.7505 58.5401 34.8119 58.5401C35.8733 58.5401 36.7594 59.4269 36.7594 60.4897C36.7594 61.5524 35.8733 62.4393 34.8119 62.4393ZM50.1966 62.4393C49.1352 62.4393 48.2491 61.5524 48.2491 60.4897C48.2491 59.4269 49.1352 58.5401 50.1966 58.5401C51.258 58.5401 52.1441 59.4269 52.1441 60.4897C52.1441 61.5524 51.258 62.4393 50.1966 62.4393Z" fill="white" stroke="white" stroke-width="0.22"/>
<path d="M18.944 36.2432L20.2889 35.7944C19.3981 38.2261 18.9526 40.7471 18.9526 43.3569C18.9526 46.554 19.6102 49.6108 20.9257 52.4794L20.9256 52.4794L20.9271 52.4824C21.0837 52.7957 21.3513 52.959 21.6713 52.959H21.6777C21.7665 52.959 21.8786 52.9591 21.9918 52.904C22.4249 52.7383 22.5772 52.251 22.3695 51.833C21.1602 49.1788 20.5555 46.3382 20.5555 43.3569C20.5555 40.9423 20.9843 38.6132 21.76 36.4106L22.2776 38.0048L22.2778 38.0055C22.3856 38.3293 22.706 38.542 23.0274 38.542L23.0317 38.542C23.075 38.542 23.1174 38.542 23.1607 38.5348C23.2066 38.5271 23.25 38.5122 23.3012 38.487C23.7205 38.3269 23.931 37.9028 23.8258 37.4816L23.826 37.4815L23.8239 37.475L22.7494 34.1548C22.6933 33.9352 22.5311 33.7778 22.3815 33.6779L22.3819 33.6773L22.3707 33.6717C22.1595 33.566 21.9451 33.5645 21.7803 33.6193C21.7802 33.6194 21.7801 33.6194 21.7799 33.6195L18.4606 34.6958L18.4606 34.6957L18.4563 34.6973C18.0337 34.856 17.8212 35.2818 17.9268 35.7046L17.9262 35.7047L17.9302 35.7154C18.0886 36.1383 18.514 36.3512 18.9366 36.2454L18.9367 36.2457L18.944 36.2432Z" fill="white" stroke="white" stroke-width="0.2"/>
<path d="M64.5483 50.6614L64.5482 50.6614C64.7515 51.0685 64.6151 51.5671 64.2152 51.6888L61.0904 53.2761L61.0898 53.2764C60.9906 53.326 60.8339 53.3806 60.7177 53.3806H60.7134C60.6701 53.3806 60.6277 53.3806 60.5843 53.3734C60.537 53.3655 60.4924 53.3499 60.4392 53.3232C60.4391 53.3232 60.4391 53.3232 60.4391 53.3231L60.4839 53.2337C60.2968 53.1402 60.1566 53.0465 60.0631 52.8593L64.5483 50.6614ZM64.5483 50.6614L64.5455 50.6565C64.3341 50.2861 63.8595 50.1255 63.484 50.2865L63.4839 50.2864L63.4786 50.289L62.1205 50.9688C63.0434 48.5442 63.4831 45.9487 63.4831 43.3104C63.4831 40.1145 62.826 37.0587 61.5115 34.191C61.3468 33.7575 60.8613 33.6042 60.4438 33.8102C60.0107 33.9759 59.8586 34.4633 60.0663 34.8811C61.2756 37.5355 61.8803 40.3761 61.8803 43.3104C61.8803 45.797 61.442 48.2392 60.5656 50.5523L59.8252 49.07L59.8253 49.0699L59.8226 49.0651C59.6111 48.6946 59.1365 48.534 58.761 48.6951L58.7608 48.6945L58.7508 48.7002C58.3807 48.9119 58.2203 49.3868 58.3812 49.7625L58.381 49.7626L58.3839 49.7684L59.9736 52.9039C59.9737 52.904 59.9737 52.9041 59.9737 52.9042L64.5483 50.6614Z" fill="white" stroke="white" stroke-width="0.2"/>
<path d="M55.7607 33.9489V34.0489C56.2386 34.0489 56.6034 33.6767 56.655 33.211L56.6554 33.2111L56.6556 33.2021L56.7492 28.7084H56.7492V28.7063C56.7492 28.3437 56.5423 28.0217 56.2181 27.911L49.1425 24.7425L46.4005 20.3231C46.4004 20.3228 46.4003 20.3226 46.4001 20.3223C46.2425 20.0599 45.977 19.9 45.6601 19.9H35.6063C35.2893 19.9 35.0239 20.0599 34.8663 20.3224L31.9967 24.9553H27.9373C27.465 24.9553 27.0423 25.324 27.0423 25.8511V33.2468C27.0423 33.7193 27.4105 34.1425 27.9373 34.1425H30.6606C30.9822 35.6934 32.36 36.8575 34.0163 36.8575C35.6727 36.8575 37.0506 35.6934 37.3721 34.1425H44.7827C45.1042 35.6934 46.4821 36.8575 48.1385 36.8575C49.8036 36.8575 51.1874 35.6811 51.4993 34.1178C51.5173 34.1157 51.5397 34.1135 51.5666 34.1113C51.6733 34.1025 51.8351 34.0949 52.0354 34.0884C52.4354 34.0752 52.9825 34.0665 53.5347 34.0606C54.0868 34.0548 54.6433 34.0519 55.0618 34.0504C55.271 34.0497 55.4458 34.0493 55.5682 34.0491L55.7104 34.049L55.7478 34.0489L55.7574 34.0489L55.7599 34.0489H55.7605H55.7606L55.7607 33.9489ZM47.7264 25.8105L47.7324 25.8201L47.7404 25.8281C47.7512 25.8389 47.7568 25.849 47.7685 25.8723L47.7695 25.8745C47.7812 25.8979 47.799 25.9336 47.8339 25.9685L47.8339 25.9686L47.8807 26.0154L47.9275 26.0622L47.9982 25.9915L47.9275 26.0622C47.9624 26.0971 47.998 26.1149 48.0215 26.1267L48.0236 26.1277C48.0469 26.1394 48.057 26.145 48.0678 26.1558L48.081 26.169L48.098 26.1765L54.9116 29.1923L54.8672 32.2574H51.2508C50.7961 30.8958 49.5136 29.917 47.9982 29.917C46.4828 29.917 45.2003 30.8958 44.7455 32.2574H37.2223C36.7676 30.8958 35.485 29.917 33.9696 29.917C32.4542 29.917 31.1716 30.8958 30.7169 32.2574H28.7855V26.6532H32.333H32.3797H32.4265C32.7434 26.6532 33.0089 26.4933 33.1665 26.2308C33.1666 26.2306 33.1668 26.2303 33.1669 26.2301L36.036 21.5979H45.0903L47.7264 25.8105ZM33.9696 34.9723C33.0447 34.9723 32.3394 34.2232 32.3394 33.3404C32.3394 32.4143 33.0879 31.7085 33.9696 31.7085C34.8495 31.7085 35.5998 32.4594 35.5998 33.3404C35.5998 34.2683 34.8963 34.9723 33.9696 34.9723ZM48.045 34.9723C47.1201 34.9723 46.4148 34.2232 46.4148 33.3404C46.4148 32.4143 47.1633 31.7085 48.045 31.7085C48.9699 31.7085 49.6752 32.4576 49.6752 33.3404C49.6752 34.2665 48.9267 34.9723 48.045 34.9723Z" fill="white" stroke="white" stroke-width="0.2"/>
</svg>
