<svg width="78" height="201" viewBox="0 0 78 201" fill="none" xmlns="http://www.w3.org/2000/svg">
<path d="M0.646406 174.235L0.646405 154.898L77.1381 128.242L77.1381 146.595L60.0083 152.604L60.0083 176.747L77.1381 182.647L77.1381 201L0.646406 174.235ZM47.8343 155.554L18.4226 164.621L47.8343 173.907L47.8343 155.554Z" fill="white"/>
<path d="M77.1381 120.603L0.646403 120.603L0.646403 102.687L61.6243 102.687L61.6243 65.1064L77.1381 65.1064L77.1381 120.603Z" fill="white"/>
<path d="M23.0552 10.1599C22.6961 10.3784 22.1574 11.1431 21.4392 12.4541C20.6492 13.765 19.8232 15.4037 18.9613 17.3701C18.0994 19.3366 17.3453 21.4851 16.6989 23.8157C16.0525 26.1462 15.7293 28.4768 15.7293 30.8074C15.7293 33.8663 16.2679 36.2333 17.3453 37.9084C18.3508 39.5835 19.9309 40.4211 22.0856 40.4211C23.8094 40.421 25.174 39.802 26.1796 38.5639C27.1851 37.2529 28.0829 35.3957 28.8729 32.9923C29.5912 30.5889 30.453 27.6393 31.4586 24.1434C32.7514 19.1909 34.3315 14.8939 36.1989 11.2523C37.9945 7.61081 40.3287 4.84323 43.2017 2.94964C46.0746 0.983213 49.8812 -2.18038e-06 54.6215 -2.38758e-06C58.9309 -2.57595e-06 62.5939 0.801129 65.6105 2.40341C68.5553 4.00567 70.9613 6.19061 72.8287 8.95817C74.6243 11.6529 75.953 14.7482 76.8149 18.2441C77.605 21.74 78 25.3451 78 29.0594C78 32.8466 77.6409 36.7431 76.9226 40.7488C76.1326 44.6817 75.0552 48.4688 73.6906 52.1104C72.2541 55.7519 70.5304 59.1021 68.5193 62.161L53.1133 54.2953C53.4724 54.004 54.1547 53.0572 55.1602 51.4549C56.0939 49.8526 57.0994 47.8862 58.1768 45.5556C59.1823 43.1522 60.0801 40.4939 60.8702 37.5807C61.6602 34.6674 62.0552 31.7178 62.0552 28.7317C62.0552 25.5272 61.5525 23.1602 60.547 21.6307C59.5414 20.0285 58.1409 19.2273 56.3453 19.2273C54.4061 19.2273 52.8978 20.0648 51.8204 21.74C50.7431 23.3422 49.7735 25.5636 48.9116 28.404C48.0497 31.1716 47.0801 34.3761 46.0028 38.0176C44.5663 42.7516 42.9503 46.6845 41.1547 49.8162C39.3591 52.8751 37.1685 55.1693 34.5829 56.6987C31.9972 58.1553 28.7652 58.8836 24.8867 58.8836C19.5 58.8836 14.9751 57.6091 11.3122 55.06C7.57734 52.4381 4.77624 48.9422 2.90883 44.5724C0.969607 40.2026 -7.2372e-06 35.4322 -7.46323e-06 30.2612C-7.62241e-06 26.6196 0.43093 23.1238 1.29281 19.7735C2.15469 16.3505 3.23203 13.1824 4.52485 10.2691C5.81767 7.28307 7.11049 4.62476 8.40331 2.29417L23.0552 10.1599Z" fill="white"/>
</svg>
