<svg width="559" height="220" viewBox="0 0 559 220" fill="none" xmlns="http://www.w3.org/2000/svg">
<path d="M74.4368 1.8232L128.214 1.8232L202.347 217.569H151.304L134.594 169.254L67.4489 169.254L51.0424 217.569H0L74.4368 1.8232ZM126.391 134.917L101.173 51.9613L75.3483 134.917L126.391 134.917Z" fill="#EBEBEB"/>
<path d="M223.59 217.569L223.59 1.8232L273.418 1.8232V173.812H377.933L377.933 217.569L223.59 217.569Z" fill="#EBEBEB"/>
<path d="M530.744 65.0276C530.137 64.0147 528.01 62.4954 524.364 60.4696C520.718 58.2412 516.161 55.9116 510.692 53.4807C505.223 51.0497 499.248 48.9226 492.766 47.0994C486.285 45.2762 479.803 44.3646 473.322 44.3646C464.815 44.3646 458.232 45.884 453.573 48.9226C448.915 51.7587 446.585 56.2155 446.585 62.2928C446.585 67.1547 448.307 71.0037 451.75 73.8398C455.396 76.6759 460.561 79.2081 467.245 81.4365C473.929 83.4622 482.133 85.8932 491.855 88.7293C505.628 92.3757 517.579 96.8324 527.706 102.099C537.834 107.164 545.53 113.748 550.797 121.851C556.266 129.954 559 140.691 559 154.061C559 166.215 556.772 176.547 552.316 185.055C547.86 193.361 541.783 200.147 534.086 205.414C526.592 210.479 517.984 214.227 508.261 216.657C498.539 218.886 488.513 220 478.183 220C467.65 220 456.814 218.987 445.674 216.961C434.736 214.733 424.204 211.694 414.076 207.845C403.949 203.794 394.631 198.932 386.124 193.26L408 149.807C408.81 150.82 411.443 152.744 415.899 155.58C420.355 158.214 425.824 161.05 432.305 164.088C438.99 166.924 446.383 169.457 454.485 171.685C462.587 173.913 470.79 175.028 479.094 175.028C488.006 175.028 494.589 173.61 498.843 170.773C503.299 167.937 505.527 163.987 505.527 158.923C505.527 153.453 503.198 149.199 498.539 146.16C494.083 143.122 487.905 140.387 480.006 137.956C472.309 135.525 463.397 132.79 453.269 129.751C440.104 125.7 429.166 121.142 420.456 116.077C411.949 111.013 405.569 104.834 401.315 97.5414C397.264 90.2486 395.239 81.1326 395.239 70.1934C395.239 55 398.784 42.2376 405.873 31.9061C413.165 21.372 422.887 13.4714 435.04 8.20442C447.193 2.73481 460.46 0 474.841 0C484.968 0 494.691 1.21547 504.008 3.6464C513.528 6.07734 522.339 9.11602 530.441 12.7624C538.745 16.4088 546.138 20.0552 552.62 23.7017L530.744 65.0276Z" fill="#EBEBEB"/>
</svg>
