<svg width="106" height="113" viewBox="0 0 106 113" fill="none" xmlns="http://www.w3.org/2000/svg">
<path fill-rule="evenodd" clip-rule="evenodd" d="M28.1392 0.347003C27.4847 0.523879 26.3012 0.979112 25.5091 1.35851C24.2067 1.98229 23.0681 3.04881 13.6397 12.4763C4.21023 21.9049 3.1345 23.0534 2.41187 24.461C0.86579 27.4734 0.952146 25.3134 0.948639 61.0499C0.945132 96.1596 0.884201 94.377 2.1745 96.9234C2.88639 98.3284 4.85286 100.299 6.33165 101.09C8.74217 102.378 8.35686 102.356 28.3338 102.357L46.644 102.358L46.6497 104.275C46.6547 105.909 46.7477 106.393 47.2798 107.556C48.0127 109.157 49.7418 110.909 51.3013 111.629L52.3426 112.11H75.9043H99.4659L100.507 111.629C101.952 110.962 103.762 109.179 104.525 107.675C105.105 106.529 105.165 106.206 105.165 104.219C105.165 102.278 105.094 101.877 104.551 100.712C103.876 99.2662 102.531 97.7524 101.304 97.0587L100.513 96.6109L100.391 94.3878C100.256 91.9194 99.5867 89.3912 98.8586 88.6028C98.2951 87.9924 97.1897 87.9509 96.4943 88.5142C95.8536 89.033 95.8477 89.8797 96.4695 92.1447C96.7312 93.0981 96.9454 94.3558 96.9454 94.9392V96H76.233H55.5207V94.731C55.5207 90.3924 58.4152 85.9705 62.5565 83.9825C64.7529 82.928 66.2317 82.6302 69.2695 82.6302C71.3885 82.6302 71.5766 82.5942 72.0785 82.0921C72.8327 81.3379 72.8147 80.1877 72.039 79.5777C71.533 79.1794 71.1584 79.1233 69.0109 79.1233C65.8365 79.1233 64.3707 78.8401 62.1311 77.7947C59.5685 76.5986 57.3879 74.418 56.1918 71.8554C55.3355 70.0211 54.8632 68.1493 54.8632 66.5898V65.7535H75.7026H96.5418L96.3884 67.2329C96.0349 70.644 94.5226 73.7386 92.1958 75.8124C89.6355 78.0941 86.6696 79.1233 82.6538 79.1233C80.4128 79.1233 80.2352 79.156 79.73 79.6614C79.0771 80.3141 79.0275 81.2824 79.6103 82.0031C80.0079 82.4947 80.1971 82.5269 83.3912 82.6475C87.2566 82.7932 89.0744 83.2849 91.1873 84.7551C93.2833 86.2137 93.7136 86.3904 94.5033 86.1149C95.3057 85.8354 95.6303 85.3458 95.6303 84.4158C95.6303 83.6239 94.6942 82.6685 92.7755 81.5018L91.4604 80.7023L92.4285 80.135C93.8264 79.3158 95.7267 77.5108 96.8533 75.9323C98.7095 73.3307 99.6123 70.7016 99.9117 67.0247L100.049 65.337L101.188 64.694C102.623 63.8843 103.844 62.5423 104.587 60.9578C105.09 59.8843 105.165 59.4444 105.165 57.5343C105.165 55.5889 105.097 55.2053 104.564 54.1206C103.372 51.6952 101.04 49.9702 98.3588 49.5312C97.6417 49.4137 95.6494 49.3171 93.9317 49.3164L90.8084 49.3151L90.8066 29.7535C90.8057 17.4124 90.7218 9.66602 90.5793 8.76717C90.0432 5.38262 87.8986 2.50569 84.7518 0.950619L83.0506 0.109633L56.1896 0.0675507C33.1731 0.0313863 29.1586 0.0714959 28.1392 0.347003ZM81.0251 3.50076C83.6057 3.92333 85.542 5.35763 86.6115 7.63884L87.1919 8.87675L87.2533 29.0872L87.3147 49.2976L70.1574 49.3611L53.0001 49.4247L51.7405 49.9334C49.2244 50.9493 47.0124 53.6855 46.6264 56.2591L46.4846 57.2055H30.0305H13.5764L13.069 57.682C12.4395 58.2736 12.3992 59.3671 12.9806 60.0853L13.3997 60.6028L30.2571 60.6615L47.1146 60.7203L47.4738 61.4738C47.9821 62.5397 49.2928 63.9284 50.4064 64.5809C51.1812 65.035 51.3563 65.2551 51.3563 65.7743V66.411H32.4662H13.5764L13.069 66.8875C12.4395 67.479 12.3992 68.5725 12.9806 69.2908L13.3997 69.8083L32.548 69.8666L51.6963 69.9249L52.2015 71.5527C52.4794 72.448 53.037 73.7287 53.4403 74.3985L54.1736 75.6165H33.8749H13.5764L13.069 76.093C12.4395 76.6845 12.3992 77.778 12.9806 78.4963L13.3997 79.0137L35.5012 79.1233L57.6029 79.2329L58.9736 80.1432L60.3444 81.0532L59.3524 81.6347C58.8066 81.9544 57.7333 82.8024 56.9673 83.5189L55.5744 84.822H34.5754H13.5764L13.069 85.2984C12.374 85.9514 12.388 87.079 13.0999 87.7907L13.6377 88.3288H33.4834C44.3985 88.3288 53.3283 88.3536 53.3274 88.3836C53.3265 88.4136 53.0679 89.1781 52.7527 90.0822C52.326 91.3059 52.1513 92.322 52.0695 94.0575L51.9595 96.3889L50.9031 96.8838C50.322 97.156 49.5257 97.7094 49.1338 98.114L48.4211 98.8493H29.2941C10.2486 98.8493 10.162 98.8474 8.90568 98.3772C7.20047 97.7392 5.56124 96.0987 4.92212 94.39L4.44782 93.1224L4.5048 61.9424L4.56179 30.7626L5.15971 29.8591C5.48847 29.3622 6.2282 28.6791 6.80354 28.3409L7.84946 27.7261L14.3152 27.6064C20.3595 27.4944 20.8577 27.4547 21.9566 26.9969C25.8102 25.392 28.5618 21.616 28.5618 17.9328C28.5618 16.5868 28.0397 16 26.8423 16C25.7471 16 25.3727 16.4384 25.0736 18.0711C24.6361 20.4572 23.2991 22.3108 21.2193 23.4135L20.1234 23.9948L13.6577 24.107C10.1015 24.1688 7.06875 24.299 6.91795 24.3965C6.76716 24.4941 6.64398 24.5429 6.64398 24.5052C6.64398 24.4673 10.8603 20.2205 16.0138 15.0679L25.3837 5.69933L25.3136 8.82919C25.2485 11.7346 25.275 11.9875 25.6838 12.3575C26.2929 12.9088 27.6141 12.8807 28.1905 12.3043C28.5809 11.9139 28.6598 11.4861 28.7698 9.15862C28.8794 6.84497 28.9701 6.34678 29.414 5.62854C30.0577 4.58744 31.2614 3.77385 32.5258 3.52552C33.8801 3.25988 79.4113 3.23643 81.0251 3.50076ZM19.1209 31.6669C18.6466 31.9249 18.1491 33.0475 15.9935 38.7266C14.5835 42.4406 13.4319 45.7335 13.4341 46.0441C13.4403 46.8467 14.2847 47.5617 15.2268 47.5617C16.1546 47.5617 16.5403 47.1823 17.1214 45.6987L17.5507 44.6028L20.1863 44.5414L22.822 44.48L23.2073 45.4891C23.8161 47.0837 24.2929 47.5617 25.2741 47.5617C25.9257 47.5617 26.2229 47.4297 26.5732 46.9842C26.823 46.6666 27.0275 46.2017 27.0275 45.9512C27.0275 45.7006 25.8769 42.4531 24.4702 38.7345C22.2144 32.7705 21.8409 31.936 21.3031 31.6579C20.5451 31.266 19.8527 31.2689 19.1209 31.6669ZM30.016 31.7969L29.4385 32.251V37.5249C29.4385 41.0247 29.5281 43.1019 29.705 43.7006C30.0767 44.9585 31.8696 46.7205 33.2603 47.1943C35.5847 47.9862 38.1048 47.5174 39.8687 45.9648C41.6342 44.4106 41.7022 44.1088 41.7077 37.7916C41.7125 32.3273 41.7096 32.2929 41.2053 31.819C40.6677 31.3142 39.7559 31.2011 39.0909 31.5571C38.3523 31.9525 38.2056 33.005 38.2056 37.9124C38.2056 42.56 38.1949 42.6731 37.7125 43.1126C36.6155 44.1118 35.4188 44.3251 34.2628 43.7274C32.9817 43.0648 32.9454 42.891 32.9454 37.4208V32.4185L32.4073 31.8806C31.7418 31.2149 30.7976 31.1819 30.016 31.7969ZM45.7125 31.8311C45.222 32.3545 45.2193 32.3937 45.2193 39.5209C45.2193 48.4303 44.8081 47.6336 49.3486 47.5222C53.0523 47.4315 53.6763 47.2174 55.2671 45.4913C58.889 41.5621 57.8153 33.9683 53.3484 31.9218C52.5151 31.54 51.8166 31.4475 49.2741 31.3828C46.2705 31.3066 46.1951 31.316 45.7125 31.8311ZM61.5382 31.8806L61.0001 32.4185V39.4126C61.0001 46.1565 61.0164 46.4274 61.4545 46.9842C61.8047 47.4297 62.102 47.5617 62.7536 47.5617C63.4052 47.5617 63.7024 47.4297 64.0526 46.9842C64.4908 46.4274 64.507 46.1565 64.507 39.4126V32.4185L63.9689 31.8806C63.6298 31.5413 63.1805 31.3425 62.7536 31.3425C62.3266 31.3425 61.8773 31.5413 61.5382 31.8806ZM68.3327 31.8806C67.9935 32.2197 67.7947 32.669 67.7947 33.0959C67.7947 34.2151 68.6236 34.8494 70.0862 34.8494H71.3015V40.628C71.3015 46.1423 71.3223 46.4331 71.7559 46.9842C72.3974 47.7999 73.7125 47.7999 74.354 46.9842C74.7875 46.4331 74.8084 46.1423 74.8084 40.628V34.8494H75.9843C77.5652 34.8494 78.3152 34.2852 78.3152 33.0959C78.3152 32.4443 78.1833 32.1471 77.7377 31.7969C77.1998 31.3736 76.8768 31.3425 73.0155 31.3425C68.907 31.3425 68.866 31.3473 68.3327 31.8806ZM51.7795 35.1702C54.3599 36.5048 54.6885 41.2108 52.3534 43.3907C51.8786 43.8337 51.4966 43.9477 50.2497 44.0182L48.7262 44.1044V39.4769V34.8494H49.9426C50.6115 34.8494 51.4381 34.9938 51.7795 35.1702ZM20.9355 39.3973L21.4793 40.8768L20.8561 40.9454C20.5134 40.9833 19.9527 40.9833 19.6099 40.9454L18.9868 40.8768L19.5306 39.3973C19.8297 38.5835 20.1458 37.9179 20.233 37.9179C20.3203 37.9179 20.6363 38.5835 20.9355 39.3973ZM98.3889 53.1441C99.6338 53.5137 100.905 54.6823 101.428 55.9382C102.356 58.1653 101.289 60.784 99.0275 61.8311C98.1925 62.2177 97.0961 62.237 75.9043 62.237C54.7317 62.237 53.6145 62.2175 52.7654 61.8317C51.1496 61.0979 50.0386 59.2963 50.0474 57.4247C50.0553 55.6949 51.7708 53.5448 53.5126 53.081C54.0053 52.9497 62.6177 52.8586 75.8096 52.8445C94.1276 52.8252 97.4644 52.8695 98.3889 53.1441ZM99.0911 99.9251C102.674 101.768 102.639 106.4 99.0275 108.349L98.1508 108.822H75.9043H53.6577L52.781 108.349C52.2988 108.089 51.6382 107.595 51.3131 107.253C49.1415 104.965 49.8823 101.264 52.781 99.9224C53.616 99.5358 54.7196 99.5163 75.9678 99.5117C97.4959 99.5071 98.3064 99.5216 99.0911 99.9251Z" fill="#C30000"/>
</svg>
