<svg width="112" height="106" viewBox="0 0 112 106" fill="none" xmlns="http://www.w3.org/2000/svg">
<path fill-rule="evenodd" clip-rule="evenodd" d="M34.6204 1.11118C33.1741 1.69371 31.7734 2.80518 31.0515 3.94333C29.8058 5.90727 29.7502 6.38283 29.7502 15.0867V23.0312H17.211C3.40066 23.0312 3.53541 23.0192 1.87379 24.389C1.41375 24.7681 0.804973 25.5775 0.521035 26.1876L0.00456668 27.2969L0.00237918 39.677C-2.7067e-05 53.8584 -0.267777 52.2033 2.26513 53.668L3.60957 54.4455L3.71894 77.9493C3.82329 100.376 3.84713 101.491 4.23869 102.279C4.7766 103.361 6.31682 104.701 7.39547 105.024C8.63447 105.395 103.366 105.395 104.605 105.024C105.684 104.701 107.224 103.361 107.762 102.279C108.153 101.491 108.177 100.376 108.281 77.9493L108.391 54.4455L109.735 53.668C112.268 52.2033 112 53.8584 111.998 39.677L111.996 27.2969L111.479 26.1876C111.195 25.5775 110.587 24.7681 110.127 24.389C108.465 23.0194 108.599 23.0312 94.799 23.0312H82.2697L82.2054 14.6641L82.1408 6.29686L81.5568 5.05086C80.8449 3.5323 79.4366 2.0809 77.9789 1.36361L76.8908 0.828114L56.2189 0.783052C37.1785 0.741489 35.474 0.76752 34.6204 1.11118ZM76.7523 5.29083C77.9067 6.11421 78.3022 7.24602 78.3079 9.74218L78.3127 11.875H76.5627H74.8127V10.7668C74.8127 9.6129 74.5471 8.88993 73.9567 8.43668C73.4529 8.04993 38.5474 8.04993 38.0437 8.43668C37.4533 8.88993 37.1877 9.6129 37.1877 10.7668V11.875H35.4377H33.6877L33.6925 9.74218C33.6991 6.83783 34.3645 5.47152 36.0939 4.81221C36.2744 4.74352 45.3307 4.7048 56.2189 4.72646L76.0158 4.76561L76.7523 5.29083ZM70.8752 17.5625V23.0312H56.0002H41.1252V17.5625V12.0937H56.0002H70.8752V17.5625ZM37.1877 19.4219V23.0312H35.4377H33.6877V19.4219V15.8125H35.4377H37.1877V19.4219ZM78.3127 19.4219V23.0312H76.5627H74.8127V19.4219V15.8125H76.5627H78.3127V19.4219ZM107.526 27.5058L108.063 28.0426L108.056 39.0448L108.049 50.0469L102.175 53.3828L96.3003 56.7187H94.7441H93.1877V58.7074V60.6961L95.4367 60.6215L97.6856 60.5469L101.015 58.649L104.344 56.7511V78.5412V100.331L103.868 100.838L103.393 101.344H56.0308H8.66904L8.16263 100.868L7.65644 100.392V78.5719V56.7511L10.9856 58.649L14.3148 60.5469L16.5637 60.6215L18.8127 60.6961V58.7074V56.7187H17.2563H15.7001L9.82579 53.3828L3.95169 50.0469L3.94469 39.0448L3.93769 28.0426L4.47472 27.5058L5.01154 26.9687H56.0002H106.989L107.526 27.5058ZM8.42207 30.7214C7.48319 31.2348 7.43769 31.4726 7.43769 35.8699V40.0937H9.40644H11.3752V37.25V34.4062H14.1096H16.8439V32.4375V30.4687L12.8518 30.4753C10.3871 30.4795 8.69222 30.5735 8.42207 30.7214ZM95.1564 32.4375V34.4062H97.8908H100.625V37.25V40.0937H102.594H104.563V35.9554C104.563 33.6793 104.501 31.6576 104.427 31.463C104.11 30.637 103.209 30.4687 99.1049 30.4687H95.1564V32.4375ZM53.6681 36.5791C52.5619 37.0816 51.0311 38.5671 50.8414 39.3226L50.7027 39.875H39.3516H28.0002V41.8354V43.7961L29.9576 43.8589L31.9152 43.9219L26.5411 53.1094C23.5856 58.1625 20.9842 62.6906 20.7604 63.1719C20.4118 63.9215 20.3529 64.6121 20.3488 67.9931C20.3433 72.4425 20.5959 73.8803 21.6525 75.4162C23.0987 77.5181 25.6961 79.1844 29.2114 80.2652C31.0507 80.8307 31.4295 80.8687 35.3283 80.8795C40.1159 80.8924 41.2763 80.6747 44.5158 79.1575C46.9577 78.0136 48.9319 76.2686 49.8122 74.4764C50.4144 73.2499 50.4229 73.1744 50.4921 68.4695L50.5621 63.7047L44.7698 53.7586L38.9775 43.8125H44.8492C50.6614 43.8125 50.7222 43.8173 50.8696 44.2819C51.089 44.9732 52.6308 46.5668 53.3807 46.8772L54.0314 47.1469V70.5265V93.9062H48.4533H42.8752V95.875V97.8437H56.0002H69.1252V95.875V93.9062H63.5471H57.9689V70.5265V47.1469L58.6197 46.8772C59.3696 46.5668 60.9114 44.9732 61.1308 44.2819C61.2782 43.8171 61.3379 43.8125 67.198 43.8125C71.8996 43.8125 73.0728 43.8687 72.9048 44.0859C72.7886 44.2364 70.161 48.714 67.0659 54.0362L61.4383 63.7131L61.5083 68.4737C61.5774 73.174 61.586 73.2501 62.1882 74.4764C63.4047 76.9536 66.3366 79.0315 70.3747 80.2781C72.187 80.8377 72.5414 80.8716 76.5627 80.8716C80.6026 80.8716 80.932 80.8396 82.789 80.267C86.2621 79.196 88.9205 77.4908 90.345 75.4203C91.4047 73.8803 91.6571 72.4453 91.6516 67.9931C91.6475 64.6121 91.5886 63.9215 91.2399 63.1719C91.0162 62.6906 88.4148 58.1625 85.4593 53.1094L80.0852 43.9219L82.0428 43.8589L84.0002 43.7961V41.8354V39.875H72.6252C63.196 39.875 61.2502 39.8242 61.2502 39.5784C61.2502 38.9357 59.7104 37.2848 58.5902 36.7267C57.1528 36.0103 55.0589 35.9476 53.6681 36.5791ZM20.3439 41.8437V43.8125H22.3127H24.2814V41.8437V39.875H22.3127H20.3439V41.8437ZM87.7189 41.8437V43.8125H89.6877H91.6564V41.8437V39.875H89.6877H87.7189V41.8437ZM57.2132 40.6308C57.5104 40.9278 57.7502 41.424 57.7502 41.7411C57.7502 42.4425 56.6628 43.5937 56.0002 43.5937C55.3376 43.5937 54.2502 42.4425 54.2502 41.7411C54.2502 40.9473 55.1569 40.0937 56.0002 40.0937C56.4263 40.0937 56.8748 40.2921 57.2132 40.6308ZM41.1013 55.4303C44.1223 60.6169 46.5939 65.0958 46.5939 65.3834V65.9062H35.4377H24.2814V65.4368C24.2814 64.9726 35.1977 46.0094 35.4685 46.0033C35.5455 46.0015 38.0804 50.2435 41.1013 55.4303ZM82.1955 55.4867C85.2333 60.7011 87.7189 65.1785 87.7189 65.4368V65.9062H76.5489H65.3787L65.4473 65.295C65.5132 64.7084 76.2735 45.9967 76.5415 46.0033C76.6132 46.0048 79.1577 50.2726 82.1955 55.4867ZM46.5939 70.8351C46.5939 72.1793 46.1761 73.0797 45.1025 74.0483C43.8436 75.1845 41.8882 76.1179 39.6451 76.6536C36.9267 77.3031 32.6189 77.1563 30.0613 76.3275C28.3307 75.7666 26.073 74.4856 25.3288 73.6425C24.7437 72.9797 24.2814 71.6924 24.2814 70.7257V69.8437H35.4377H46.5939V70.8351ZM87.7141 70.7734C87.7076 72.0354 87.0732 73.34 86.0518 74.1916C81.3721 78.0939 71.2976 78.0184 66.8979 74.0483C65.8243 73.0797 65.4064 72.1793 65.4064 70.8351V69.8437H76.5627H87.7189L87.7141 70.7734ZM35.4377 95.875V97.8437H37.4064H39.3752V95.875V93.9062H37.4064H35.4377V95.875ZM72.6252 95.875V97.8437H74.5939H76.5627V95.875V93.9062H74.5939H72.6252V95.875Z" fill="#D60000"/>
</svg>
