<svg width="112" height="112" viewBox="0 0 112 112" fill="none" xmlns="http://www.w3.org/2000/svg">
<path fill-rule="evenodd" clip-rule="evenodd" d="M55.4357 0.385814C53.772 1.03764 52.5373 2.19072 51.7141 3.86113L50.9873 5.33583L50.9159 10.9971C50.854 15.9033 50.893 16.7608 51.2082 17.4247C51.9174 18.9186 53.9809 19.2644 55.0985 18.0768C55.6024 17.5414 55.615 17.4196 55.7229 11.9888C55.8427 5.96389 55.9139 5.62157 57.168 5.05053C57.5788 4.86342 64.0634 4.7965 81.7463 4.7965H105.767L106.515 5.54496L107.264 6.29343V21.0867V35.88L106.515 36.6284C106.104 37.0401 105.555 37.3769 105.297 37.3769C103.34 37.3769 102.07 39.3819 102.95 41.0829C103.424 41.998 104.16 42.2866 105.758 42.184C108.196 42.0275 110.385 40.5447 111.491 38.3004L112 37.2668V21.0867V4.90656L111.491 3.87302C110.841 2.55395 109.508 1.22234 108.188 0.572711L107.154 0.0635326L81.824 0.0173036C57.4762 -0.0269441 56.4529 -0.0128552 55.4357 0.385814ZM69.8197 21.0867V23.5082H72.2426H74.6655V21.0867V18.6652H72.2426H69.8197V21.0867ZM79.0707 21.0867V23.5082H81.4936H83.9165V21.0867V18.6652H81.4936H79.0707V21.0867ZM88.542 21.0867V23.5082H90.9649H93.3878V21.0867V18.6652H90.9649H88.542V21.0867ZM4.60638 23.589C2.31609 24.2063 0.573153 25.7613 -0.247324 27.9198C-0.642255 28.9584 -0.664281 29.8451 -0.664061 44.6989L-0.663841 60.3813L-0.0365332 61.7021C0.748482 63.3547 2.17887 64.6903 3.82225 65.3047C4.94316 65.7238 5.53038 65.7747 9.2559 65.7747H13.4325V69.7202C13.4325 73.6054 13.4409 73.6759 13.9819 74.3184C14.6184 75.0744 15.7268 75.3617 16.6543 75.0112C17.0023 74.8796 19.3221 72.7475 21.8093 70.2734L26.3313 65.7747H30.9172H35.5028L36.2517 65.0262C36.8656 64.4127 37.0006 64.1111 37.0006 63.3532C37.0006 62.5952 36.8656 62.2936 36.2517 61.6801L35.5028 60.9316H30.0698C26.53 60.9316 24.4692 61.0166 24.1558 61.1756C23.8912 61.3098 22.4606 62.621 20.9765 64.0891L18.2783 66.7587V64.9388C18.2783 62.9001 17.9252 61.7816 17.1406 61.3345C16.7657 61.1212 15.1138 61.0118 11.0462 60.9316L5.46606 60.8216L4.82378 60.1026L4.18149 59.3836V44.7583C4.18149 34.175 4.25176 29.9789 4.43568 29.5754C4.57554 29.2688 4.94713 28.843 5.26166 28.6295C5.79183 28.2694 6.90812 28.2372 20.591 28.1861C31.6458 28.145 35.4777 28.064 35.8629 27.8636C37.4709 27.028 37.279 24.3183 35.5614 23.6009C34.5381 23.1736 6.18853 23.1628 4.60638 23.589ZM52.9696 23.5172C45.412 24.6928 39.4612 30.0342 37.4061 37.487C36.9792 39.0352 36.9202 39.7936 36.9176 43.7609C36.9143 48.788 37.1909 50.8949 38.3484 54.6577C40.8402 62.7586 46.0503 68.474 52.4132 70.0867C54.3465 70.577 58.3925 70.4202 60.1504 69.7873L61.3839 69.3433L61.7663 70.5556C61.9766 71.2226 62.0658 71.8507 61.9645 71.9513C61.168 72.7423 55.7956 76.552 55.5886 76.4725C55.4436 76.417 53.5273 75.0273 51.3298 73.3846C47.4673 70.4969 47.2985 70.3976 46.2536 70.3976H45.1726L42.7937 72.8396L40.4147 75.2818L32.5724 79.2139C23.9595 83.5325 22.0009 84.7823 19.9289 87.2815C18.582 88.9063 17.3964 90.8737 16.8309 92.4219C15.8481 95.1138 15.8067 95.547 15.6992 104.244L15.5953 112.664H18.0155H20.4358L20.5353 104.684C20.6206 97.8523 20.6908 96.5299 21.0232 95.4933C21.9602 92.5714 23.6219 90.1877 25.9483 88.4275C27.1839 87.4926 39.5799 81.0157 39.7382 81.2222C39.7686 81.2618 40.1638 83.5728 40.6167 86.3576C41.0693 89.1423 41.5362 91.7967 41.6541 92.2564C41.9012 93.2186 42.8867 93.9499 43.9389 93.9519C44.3023 93.9528 47.1003 92.9529 50.1564 91.7302L55.7134 89.5073L61.2973 91.7298C64.3684 92.9522 67.1706 93.9519 67.5246 93.9514C68.56 93.9501 69.5459 93.2131 69.7917 92.2564C69.9096 91.7967 70.3765 89.1423 70.8292 86.3576C71.282 83.5728 71.6772 81.2618 71.7076 81.2222C71.8659 81.0157 84.2619 87.4926 85.4976 88.4275C87.824 90.1877 89.4856 92.5714 90.4226 95.4933C90.755 96.5299 90.8253 97.8523 90.9105 104.684L91.0101 112.664H93.4303H95.8505L95.7466 104.244C95.6391 95.547 95.5977 95.1138 94.6149 92.4219C94.0495 90.8737 92.8638 88.9063 91.5169 87.2815C89.4429 84.7798 87.4876 83.533 78.8727 79.2172L71.03 75.2884L69.1371 73.3261C67.2891 71.41 67.2259 71.3087 66.4704 69.0541L65.6966 66.7448L67.1175 65.2459C69.7732 62.4442 71.8135 58.8317 73.0974 54.6577C74.2549 50.8949 74.5316 48.788 74.5283 43.7609C74.5256 39.7936 74.4666 39.0352 74.0397 37.487C72.182 30.7496 67.0129 25.5945 60.4585 23.9419C58.405 23.4241 54.8599 23.2231 52.9696 23.5172ZM60.1282 28.9903C65.4636 30.8549 69.0221 35.4302 69.6186 41.1928C69.8801 43.7184 69.5655 48.4327 68.9521 51.1855C67.4429 57.9569 63.7662 63.0626 59.05 64.9366C57.3 65.632 54.1458 65.632 52.3958 64.9366C46.6118 62.6384 42.4422 55.4484 41.8845 46.8109L41.7329 44.4675L42.8483 44.2179C44.2574 43.9029 46.5005 42.8489 47.5785 41.9956C48.0344 41.6346 48.5276 41.3394 48.6745 41.3394C48.8214 41.3394 49.3179 41.6372 49.7778 42.0013C50.9692 42.9444 53.1987 43.9361 54.9714 44.3115C55.9471 44.5179 57.7872 44.6353 60.0951 44.6377L63.6964 44.6414L64.4453 43.893C65.0592 43.2795 65.1942 42.9779 65.1942 42.2199C65.1942 41.462 65.0592 41.1604 64.4453 40.5469L63.6964 39.7984H60.6207C58.9293 39.7984 57.0343 39.7015 56.4101 39.5833C54.6736 39.2542 52.8884 38.2773 51.5038 36.8983C50.0364 35.4366 49.6075 35.1755 48.6745 35.1755C47.7417 35.1755 47.3128 35.4366 45.8446 36.8983C44.7988 37.9394 42.3444 39.4887 42.1107 39.2553C42.0743 39.219 42.2565 38.5586 42.5155 37.7879C43.4686 34.9512 45.4677 32.3545 47.9864 30.681C49.6091 29.6027 50.1014 29.3727 52.0886 28.7649C54.0055 28.1787 58.137 28.2944 60.1282 28.9903ZM8.58674 35.1755V37.597H20.4809H32.3751V35.1755V32.754H20.4809H8.58674V35.1755ZM80.463 37.732C78.9679 38.469 78.7146 40.5953 79.9934 41.6709C80.596 42.1774 80.8196 42.2199 82.8892 42.2199H85.1321L89.5352 46.6374C91.957 49.0671 94.2061 51.1969 94.5332 51.3704C95.6305 51.9524 97.2695 51.563 97.7864 50.5973C97.925 50.3386 98.0133 47.9902 98.0133 44.5626V38.9515L97.464 38.2991C96.7558 37.4581 95.6391 37.2287 94.6158 37.7141C93.5398 38.2242 93.1675 39.1618 93.1675 41.3614V43.1881L90.4629 40.5156C88.9753 39.0458 87.4821 37.7384 87.1447 37.61C86.1524 37.2329 81.2956 37.3216 80.463 37.732ZM8.58674 44.6414V47.063H20.4809H32.3751V44.6414V42.2199H20.4809H8.58674V44.6414ZM8.58674 53.8872V56.3088H11.0096H13.4325V53.8872V51.4657H11.0096H8.58674V53.8872ZM18.058 53.8872V56.3088H20.4809H22.9038V53.8872V51.4657H20.4809H18.058V53.8872ZM50.6216 79.0607C52.7839 80.6773 54.8165 82.066 55.1381 82.1468C55.4597 82.2273 55.9861 82.2273 56.3077 82.1468C56.6293 82.066 58.6619 80.6773 60.8242 79.0607C62.9867 77.444 64.8455 76.1212 64.9548 76.1212C65.064 76.1212 65.6149 76.6341 66.179 77.2612C66.9023 78.0654 67.1735 78.5356 67.0988 78.8572C67.0407 79.108 66.6719 81.2695 66.2794 83.6609C65.8869 86.0522 65.5028 88.0086 65.4257 88.0086C65.3486 88.0086 63.3116 87.2161 60.8991 86.2475C58.3024 85.2049 56.194 84.4862 55.7322 84.4857C55.2685 84.4855 53.1392 85.2106 50.482 86.2741C48.0236 87.2579 45.9785 88.0258 45.9371 87.9806C45.8959 87.9355 45.5069 85.7687 45.0726 83.1656L44.2827 78.4328L45.425 77.2769C46.0529 76.6413 46.5946 76.1212 46.6285 76.1212C46.6622 76.1212 48.4591 77.444 50.6216 79.0607ZM29.7319 106.72V112.664H32.1548H34.5777V106.72V100.777H32.1548H29.7319V106.72ZM53.3 103.198V105.62H55.7229H58.1458V103.198V100.777H55.7229H53.3V103.198ZM76.8681 106.72V112.664H79.291H81.7139V106.72V100.777H79.291H76.8681V106.72Z" fill="#EC0404"/>
</svg>
