<svg width="197" height="63" viewBox="0 0 197 63" fill="none" xmlns="http://www.w3.org/2000/svg">
<path fill-rule="evenodd" clip-rule="evenodd" d="M187.237 17.043C188.265 17.614 188.864 18.0422 189.036 18.3277L195.202 6.68018C193.375 5.65246 191.291 4.62474 188.95 3.59702C186.666 2.5693 184.182 1.71286 181.499 1.02772C178.872 0.342572 176.132 0 173.277 0C169.223 0 165.484 0.77079 162.058 2.31237C158.632 3.79685 155.892 6.02358 153.836 8.99255C151.838 11.9044 150.839 15.5014 150.839 19.7836C150.839 22.8668 151.41 25.4361 152.551 27.4915C153.75 29.5469 155.549 31.2883 157.947 32.7157C160.402 34.1431 163.485 35.4278 167.196 36.5697C170.051 37.4261 172.563 38.1969 174.733 38.882C176.96 39.5672 178.701 40.338 179.957 41.1944C181.271 42.0508 181.927 43.2499 181.927 44.7914C181.927 46.2188 181.299 47.3322 180.043 48.1315C178.844 48.9309 176.988 49.3305 174.476 49.3305C172.135 49.3305 169.823 49.0165 167.539 48.3884C165.255 47.7604 163.171 47.0467 161.287 46.2474C159.46 45.3909 157.918 44.5916 156.662 43.8494C155.406 43.05 154.664 42.5076 154.436 42.2221L148.269 54.4691C150.667 56.0678 153.294 57.4381 156.148 58.58C159.003 59.6648 161.972 60.5212 165.055 61.1493C168.196 61.7202 171.25 62.0057 174.219 62.0057C177.131 62.0057 179.957 61.6917 182.698 61.0637C185.438 60.3785 187.865 59.3222 189.978 57.8948C192.147 56.4104 193.86 54.4977 195.116 52.1567C196.372 49.7587 197 46.8469 197 43.4211C197 39.6528 196.23 36.6268 194.688 34.3429C193.203 32.0591 191.034 30.2035 188.179 28.7761C185.324 27.2917 181.956 26.0356 178.073 25.0078C175.333 24.2085 173.02 23.5233 171.136 22.9524C169.252 22.3243 167.796 21.6107 166.768 20.8113C165.798 20.012 165.312 18.9272 165.312 17.5569C165.312 15.844 165.969 14.5879 167.282 13.7886C168.595 12.9321 170.451 12.5039 172.849 12.5039C174.676 12.5039 176.503 12.7608 178.33 13.2747C180.157 13.7886 181.841 14.3881 183.383 15.0732C184.925 15.7584 186.209 16.415 187.237 17.043ZM60.4094 0.513857H75.5682L83.1278 22.5109H70.3374L67.946 14.645L65.4969 22.5109H52.8188L60.4094 0.513857ZM42.1868 53.3222L39.4268 61.3206H53.8148L56.5313 53.3222H42.1868ZM79.3104 53.3222L82.0771 61.3206H96.4652L93.7164 53.3222H79.3104ZM102.454 61.3206V0.513857H116.499V48.9879H145.96V61.3206H102.454Z" fill="#D60000"/>
<path d="M7.26758 38.4036H8.48077V47.7805H7.26758V38.4036Z" fill="black"/>
<path d="M16.8505 44.4695C16.8505 44.5622 16.8421 44.6844 16.8252 44.836H11.3911C11.467 45.4258 11.7239 45.9018 12.162 46.264C12.6085 46.6179 13.1604 46.7948 13.8175 46.7948C14.6179 46.7948 15.2624 46.5252 15.751 45.986L16.4208 46.7695C16.1175 47.1234 15.7384 47.393 15.2835 47.5783C14.8369 47.7637 14.3357 47.8564 13.7796 47.8564C13.0719 47.8564 12.4443 47.7131 11.8966 47.4267C11.349 47.1318 10.9235 46.7232 10.6202 46.2009C10.3254 45.6785 10.1779 45.0888 10.1779 44.4316C10.1779 43.7829 10.3212 43.1974 10.6076 42.675C10.9025 42.1527 11.3027 41.7483 11.8082 41.4618C12.3221 41.1669 12.8992 41.0195 13.5395 41.0195C14.1798 41.0195 14.7485 41.1669 15.2455 41.4618C15.751 41.7483 16.1428 42.1527 16.4208 42.675C16.7073 43.1974 16.8505 43.7955 16.8505 44.4695ZM13.5395 42.0431C12.9582 42.0431 12.4695 42.2201 12.0736 42.5739C11.686 42.9278 11.4585 43.3911 11.3911 43.964H15.6879C15.6205 43.3996 15.3888 42.9404 14.9928 42.5866C14.6053 42.2243 14.1208 42.0431 13.5395 42.0431Z" fill="black"/>
<path d="M24.9423 41.0827V46.8706C24.9423 48.0417 24.6516 48.9053 24.0703 49.4613C23.489 50.0258 22.6212 50.308 21.467 50.308C20.8351 50.308 20.2328 50.2196 19.6599 50.0426C19.087 49.8741 18.6236 49.6298 18.2697 49.3097L18.8511 48.3745C19.1628 48.6441 19.5461 48.8547 20.0011 49.0064C20.4644 49.1664 20.9405 49.2465 21.4291 49.2465C22.2126 49.2465 22.7897 49.0611 23.1604 48.6904C23.5395 48.3197 23.7291 47.7553 23.7291 46.997V46.4662C23.4427 46.8117 23.0888 47.0728 22.6676 47.2498C22.2547 47.4183 21.804 47.5025 21.3154 47.5025C20.6751 47.5025 20.0937 47.3677 19.5714 47.0981C19.0575 46.8201 18.6531 46.4368 18.3582 45.9481C18.0633 45.451 17.9159 44.8866 17.9159 44.2547C17.9159 43.6228 18.0633 43.0626 18.3582 42.5739C18.6531 42.0768 19.0575 41.6935 19.5714 41.4239C20.0937 41.1543 20.6751 41.0195 21.3154 41.0195C21.8209 41.0195 22.2884 41.1122 22.7181 41.2975C23.1562 41.4829 23.5143 41.7567 23.7923 42.119V41.0827H24.9423ZM21.4544 46.441C21.8925 46.441 22.2842 46.3483 22.6297 46.1629C22.9835 45.9776 23.2573 45.7206 23.4511 45.3921C23.6533 45.0551 23.7544 44.6759 23.7544 44.2547C23.7544 43.606 23.5395 43.0836 23.1099 42.6877C22.6802 42.2833 22.1284 42.0811 21.4544 42.0811C20.772 42.0811 20.2159 42.2833 19.7862 42.6877C19.3566 43.0836 19.1417 43.606 19.1417 44.2547C19.1417 44.6759 19.2386 45.0551 19.4324 45.3921C19.6346 45.7206 19.9084 45.9776 20.2538 46.1629C20.6077 46.3483 21.0079 46.441 21.4544 46.441Z" fill="black"/>
<path d="M29.6994 41.0195C30.6262 41.0195 31.3338 41.247 31.8225 41.7019C32.3196 42.1569 32.5681 42.8351 32.5681 43.7366V47.7805H31.4181V46.8959C31.2159 47.2076 30.9252 47.4478 30.5461 47.6163C30.1754 47.7763 29.7331 47.8564 29.2192 47.8564C28.4694 47.8564 27.867 47.6752 27.412 47.313C26.9655 46.9507 26.7423 46.4747 26.7423 45.8849C26.7423 45.2952 26.9571 44.8234 27.3868 44.4695C27.8164 44.1073 28.4989 43.9261 29.434 43.9261H31.3549V43.686C31.3549 43.1637 31.2033 42.7635 30.9 42.4855C30.5967 42.2074 30.1501 42.0684 29.5604 42.0684C29.1644 42.0684 28.7769 42.1358 28.3978 42.2706C28.0186 42.397 27.6985 42.5697 27.4373 42.7888L26.9318 41.8789C27.2772 41.6008 27.6901 41.3902 28.1703 41.247C28.6505 41.0953 29.1602 41.0195 29.6994 41.0195ZM29.4214 46.9212C29.8848 46.9212 30.2849 46.8201 30.6219 46.6179C30.9589 46.4073 31.2033 46.1124 31.3549 45.7333V44.7981H29.4846C28.4567 44.7981 27.9428 45.1435 27.9428 45.8344C27.9428 46.1714 28.0734 46.4368 28.3346 46.6305C28.5957 46.8243 28.958 46.9212 29.4214 46.9212Z" fill="black"/>
<path d="M34.8132 38.4036H36.0264V47.7805H34.8132V38.4036Z" fill="black"/>
<path d="M43.6575 47.8564C43.1099 47.8564 42.5834 47.7847 42.0779 47.6415C41.5724 47.4899 41.1764 47.3003 40.8899 47.0728L41.3954 46.1124C41.6903 46.323 42.0484 46.4915 42.4696 46.6179C42.8909 46.7443 43.3163 46.8075 43.746 46.8075C44.8075 46.8075 45.3383 46.5042 45.3383 45.8976C45.3383 45.6954 45.2667 45.5353 45.1235 45.4173C44.9803 45.2994 44.7991 45.2151 44.5801 45.1646C44.3695 45.1056 44.0662 45.0424 43.6702 44.975C43.131 44.8908 42.6887 44.7939 42.3433 44.6844C42.0063 44.5748 41.7156 44.3895 41.4713 44.1283C41.2269 43.8671 41.1048 43.5007 41.1048 43.0289C41.1048 42.4223 41.3575 41.9378 41.863 41.5756C42.3685 41.2049 43.0467 41.0195 43.8977 41.0195C44.3442 41.0195 44.7907 41.0743 45.2372 41.1838C45.6837 41.2933 46.0502 41.4408 46.3367 41.6261L45.8186 42.5866C45.2709 42.2327 44.6264 42.0558 43.885 42.0558C43.3711 42.0558 42.9793 42.14 42.7097 42.3085C42.4401 42.477 42.3053 42.7003 42.3053 42.9783C42.3053 43.1974 42.3812 43.3701 42.5328 43.4964C42.6845 43.6228 42.8698 43.7155 43.0889 43.7745C43.3163 43.8334 43.6323 43.9008 44.0367 43.9767C44.5759 44.0693 45.0097 44.1704 45.3383 44.28C45.6753 44.3811 45.9618 44.558 46.1977 44.8107C46.4336 45.0635 46.5515 45.4173 46.5515 45.8723C46.5515 46.4789 46.2903 46.9633 45.768 47.3256C45.2541 47.6794 44.5506 47.8564 43.6575 47.8564Z" fill="black"/>
<path d="M54.3106 41.0827V47.7805H53.1606V46.7695C52.9163 47.115 52.5919 47.3846 52.1875 47.5783C51.7915 47.7637 51.3577 47.8564 50.8859 47.8564C49.9928 47.8564 49.2893 47.612 48.7754 47.1234C48.2615 46.6263 48.0045 45.8976 48.0045 44.9371V41.0827H49.2177V44.7981C49.2177 45.4468 49.3736 45.9397 49.6853 46.2767C49.997 46.6053 50.4436 46.7695 51.0249 46.7695C51.6652 46.7695 52.1707 46.5758 52.5414 46.1882C52.9121 45.8007 53.0974 45.2531 53.0974 44.5454V41.0827H54.3106Z" fill="black"/>
<path d="M60.1713 41.0195C60.82 41.0195 61.4013 41.1627 61.9153 41.4492C62.4292 41.7356 62.8294 42.1358 63.1158 42.6497C63.4107 43.1637 63.5581 43.7576 63.5581 44.4316C63.5581 45.1056 63.4107 45.7038 63.1158 46.2261C62.8294 46.7401 62.4292 47.1402 61.9153 47.4267C61.4013 47.7131 60.82 47.8564 60.1713 47.8564C59.6911 47.8564 59.2488 47.7637 58.8444 47.5783C58.4484 47.393 58.1114 47.1234 57.8334 46.7695V50.2322H56.6202V41.0827H57.7828V42.1442C58.0524 41.7735 58.3936 41.4955 58.8065 41.3102C59.2193 41.1164 59.6742 41.0195 60.1713 41.0195ZM60.0702 46.7948C60.4999 46.7948 60.8832 46.6979 61.2202 46.5042C61.5656 46.302 61.8352 46.0239 62.029 45.6701C62.2312 45.3078 62.3323 44.895 62.3323 44.4316C62.3323 43.9682 62.2312 43.5596 62.029 43.2058C61.8352 42.8435 61.5656 42.5655 61.2202 42.3717C60.8832 42.1779 60.4999 42.0811 60.0702 42.0811C59.649 42.0811 59.2656 42.1822 58.9202 42.3844C58.5832 42.5781 58.3136 42.8519 58.1114 43.2058C57.9176 43.5596 57.8207 43.9682 57.8207 44.4316C57.8207 44.895 57.9176 45.3078 58.1114 45.6701C58.3052 46.0239 58.5748 46.302 58.9202 46.5042C59.2656 46.6979 59.649 46.7948 60.0702 46.7948Z" fill="black"/>
<path d="M68.7855 41.0195C69.4342 41.0195 70.0155 41.1627 70.5295 41.4492C71.0434 41.7356 71.4436 42.1358 71.73 42.6497C72.0249 43.1637 72.1723 43.7576 72.1723 44.4316C72.1723 45.1056 72.0249 45.7038 71.73 46.2261C71.4436 46.7401 71.0434 47.1402 70.5295 47.4267C70.0155 47.7131 69.4342 47.8564 68.7855 47.8564C68.3053 47.8564 67.863 47.7637 67.4586 47.5783C67.0626 47.393 66.7256 47.1234 66.4476 46.7695V50.2322H65.2344V41.0827H66.397V42.1442C66.6666 41.7735 67.0078 41.4955 67.4206 41.3102C67.8335 41.1164 68.2884 41.0195 68.7855 41.0195ZM68.6844 46.7948C69.1141 46.7948 69.4974 46.6979 69.8344 46.5042C70.1798 46.302 70.4494 46.0239 70.6432 45.6701C70.8454 45.3078 70.9465 44.895 70.9465 44.4316C70.9465 43.9682 70.8454 43.5596 70.6432 43.2058C70.4494 42.8435 70.1798 42.5655 69.8344 42.3717C69.4974 42.1779 69.1141 42.0811 68.6844 42.0811C68.2631 42.0811 67.8798 42.1822 67.5344 42.3844C67.1974 42.5781 66.9278 42.8519 66.7256 43.2058C66.5318 43.5596 66.4349 43.9682 66.4349 44.4316C66.4349 44.895 66.5318 45.3078 66.7256 45.6701C66.9194 46.0239 67.189 46.302 67.5344 46.5042C67.8798 46.6979 68.2631 46.7948 68.6844 46.7948Z" fill="black"/>
<path d="M76.7173 47.8564C76.0517 47.8564 75.4535 47.7089 74.9227 47.4141C74.392 47.1192 73.9749 46.7148 73.6716 46.2009C73.3768 45.6785 73.2293 45.0888 73.2293 44.4316C73.2293 43.7745 73.3768 43.1889 73.6716 42.675C73.9749 42.1527 74.392 41.7483 74.9227 41.4618C75.4535 41.1669 76.0517 41.0195 76.7173 41.0195C77.3828 41.0195 77.9768 41.1669 78.4991 41.4618C79.0299 41.7483 79.4427 42.1527 79.7376 42.675C80.0409 43.1889 80.1926 43.7745 80.1926 44.4316C80.1926 45.0888 80.0409 45.6785 79.7376 46.2009C79.4427 46.7148 79.0299 47.1192 78.4991 47.4141C77.9768 47.7089 77.3828 47.8564 76.7173 47.8564ZM76.7173 46.7948C77.1469 46.7948 77.5303 46.6979 77.8673 46.5042C78.2127 46.302 78.4823 46.0239 78.6761 45.6701C78.8698 45.3078 78.9667 44.895 78.9667 44.4316C78.9667 43.9682 78.8698 43.5596 78.6761 43.2058C78.4823 42.8435 78.2127 42.5655 77.8673 42.3717C77.5303 42.1779 77.1469 42.0811 76.7173 42.0811C76.2876 42.0811 75.9 42.1779 75.5546 42.3717C75.2176 42.5655 74.948 42.8435 74.7458 43.2058C74.552 43.5596 74.4552 43.9682 74.4552 44.4316C74.4552 44.895 74.552 45.3078 74.7458 45.6701C74.948 46.0239 75.2176 46.302 75.5546 46.5042C75.9 46.6979 76.2876 46.7948 76.7173 46.7948Z" fill="black"/>
<path d="M83.033 42.2074C83.2436 41.8199 83.5554 41.525 83.9682 41.3228C84.381 41.1206 84.8823 41.0195 85.472 41.0195V42.1948C85.4046 42.1864 85.312 42.1822 85.194 42.1822C84.5369 42.1822 84.0187 42.3801 83.6396 42.7761C83.2689 43.1637 83.0836 43.7197 83.0836 44.4443V47.7805H81.8704V41.0827H83.033V42.2074Z" fill="black"/>
<path d="M91.0048 47.3888C90.8278 47.5404 90.6088 47.6584 90.3476 47.7426C90.0864 47.8184 89.8168 47.8564 89.5388 47.8564C88.8648 47.8564 88.3425 47.6752 87.9718 47.313C87.6011 46.9507 87.4157 46.4325 87.4157 45.7585V42.0811H86.2784V41.0827H87.4157V39.6168H88.6289V41.0827H90.5498V42.0811H88.6289V45.708C88.6289 46.0703 88.7174 46.3483 88.8943 46.5421C89.0797 46.7358 89.3408 46.8327 89.6778 46.8327C90.0485 46.8327 90.3645 46.7274 90.6256 46.5168L91.0048 47.3888Z" fill="black"/>
<path d="M6.97586 32.9315H2.27474L1.30166 35.1431H0L4.00606 26.2969H5.25717L9.27587 35.1431H7.94894L6.97586 32.9315ZM6.53355 31.9205L4.6253 27.5859L2.71705 31.9205H6.53355Z" fill="black"/>
<path d="M13.2761 35.2189C12.5937 35.2189 11.9829 35.0715 11.4437 34.7766C10.9129 34.4817 10.4959 34.0773 10.1926 33.5634C9.88928 33.041 9.73763 32.4513 9.73763 31.7942C9.73763 31.137 9.88928 30.5515 10.1926 30.0376C10.4959 29.5152 10.9129 29.1108 11.4437 28.8244C11.9829 28.5295 12.5937 28.382 13.2761 28.382C13.8827 28.382 14.4219 28.5042 14.8937 28.7485C15.3739 28.9929 15.7446 29.3467 16.0058 29.8101L15.0833 30.404C14.8726 30.0839 14.6115 29.8438 14.2997 29.6837C13.988 29.5236 13.6426 29.4436 13.2635 29.4436C12.8254 29.4436 12.4294 29.5405 12.0756 29.7343C11.7301 29.928 11.4563 30.206 11.2541 30.5683C11.0603 30.9222 10.9635 31.3308 10.9635 31.7942C10.9635 32.266 11.0603 32.683 11.2541 33.0453C11.4563 33.3991 11.7301 33.6729 12.0756 33.8667C12.4294 34.0605 12.8254 34.1574 13.2635 34.1574C13.6426 34.1574 13.988 34.0773 14.2997 33.9172C14.6115 33.7572 14.8726 33.5171 15.0833 33.1969L16.0058 33.7782C15.7446 34.2416 15.3739 34.5997 14.8937 34.8524C14.4219 35.0967 13.8827 35.2189 13.2761 35.2189Z" fill="black"/>
<path d="M20.397 35.2189C19.7146 35.2189 19.1038 35.0715 18.5646 34.7766C18.0338 34.4817 17.6168 34.0773 17.3135 33.5634C17.0102 33.041 16.8585 32.4513 16.8585 31.7942C16.8585 31.137 17.0102 30.5515 17.3135 30.0376C17.6168 29.5152 18.0338 29.1108 18.5646 28.8244C19.1038 28.5295 19.7146 28.382 20.397 28.382C21.0036 28.382 21.5428 28.5042 22.0146 28.7485C22.4948 28.9929 22.8655 29.3467 23.1267 29.8101L22.2042 30.404C21.9935 30.0839 21.7324 29.8438 21.4206 29.6837C21.1089 29.5236 20.7635 29.4436 20.3844 29.4436C19.9463 29.4436 19.5503 29.5405 19.1965 29.7343C18.851 29.928 18.5772 30.206 18.375 30.5683C18.1812 30.9222 18.0844 31.3308 18.0844 31.7942C18.0844 32.266 18.1812 32.683 18.375 33.0453C18.5772 33.3991 18.851 33.6729 19.1965 33.8667C19.5503 34.0605 19.9463 34.1574 20.3844 34.1574C20.7635 34.1574 21.1089 34.0773 21.4206 33.9172C21.7324 33.7572 21.9935 33.5171 22.2042 33.1969L23.1267 33.7782C22.8655 34.2416 22.4948 34.5997 22.0146 34.8524C21.5428 35.0967 21.0036 35.2189 20.397 35.2189Z" fill="black"/>
<path d="M27.4674 35.2189C26.8018 35.2189 26.2036 35.0715 25.6728 34.7766C25.1421 34.4817 24.725 34.0773 24.4217 33.5634C24.1269 33.041 23.9794 32.4513 23.9794 31.7942C23.9794 31.137 24.1269 30.5515 24.4217 30.0376C24.725 29.5152 25.1421 29.1108 25.6728 28.8244C26.2036 28.5295 26.8018 28.382 27.4674 28.382C28.1329 28.382 28.7269 28.5295 29.2492 28.8244C29.78 29.1108 30.1928 29.5152 30.4877 30.0376C30.791 30.5515 30.9426 31.137 30.9426 31.7942C30.9426 32.4513 30.791 33.041 30.4877 33.5634C30.1928 34.0773 29.78 34.4817 29.2492 34.7766C28.7269 35.0715 28.1329 35.2189 27.4674 35.2189ZM27.4674 34.1574C27.897 34.1574 28.2804 34.0605 28.6174 33.8667C28.9628 33.6645 29.2324 33.3865 29.4262 33.0326C29.6199 32.6703 29.7168 32.2575 29.7168 31.7942C29.7168 31.3308 29.6199 30.9222 29.4262 30.5683C29.2324 30.206 28.9628 29.928 28.6174 29.7343C28.2804 29.5405 27.897 29.4436 27.4674 29.4436C27.0377 29.4436 26.6501 29.5405 26.3047 29.7343C25.9677 29.928 25.6981 30.206 25.4959 30.5683C25.3021 30.9222 25.2053 31.3308 25.2053 31.7942C25.2053 32.2575 25.3021 32.6703 25.4959 33.0326C25.6981 33.3865 25.9677 33.6645 26.3047 33.8667C26.6501 34.0605 27.0377 34.1574 27.4674 34.1574Z" fill="black"/>
<path d="M38.8634 28.4452V35.1431H37.7133V34.1321C37.469 34.4775 37.1447 34.7471 36.7403 34.9409C36.3443 35.1262 35.9104 35.2189 35.4386 35.2189C34.5456 35.2189 33.8421 34.9746 33.3282 34.4859C32.8142 33.9889 32.5573 33.2601 32.5573 32.2997V28.4452H33.7705V32.1606C33.7705 32.8094 33.9263 33.3022 34.2381 33.6392C34.5498 33.9678 34.9963 34.1321 35.5776 34.1321C36.2179 34.1321 36.7234 33.9383 37.0941 33.5508C37.4648 33.1632 37.6502 32.6156 37.6502 31.9079V28.4452H38.8634Z" fill="black"/>
<path d="M44.7493 28.382C45.6003 28.382 46.2743 28.6306 46.7713 29.1277C47.2768 29.6163 47.5296 30.3366 47.5296 31.2887V35.1431H46.3164V31.4277C46.3164 30.7789 46.1605 30.2903 45.8488 29.9617C45.5371 29.6332 45.0905 29.4689 44.5092 29.4689C43.8521 29.4689 43.3339 29.6626 42.9548 30.0502C42.5757 30.4293 42.3861 30.9769 42.3861 31.6931V35.1431H41.1729V28.4452H42.3356V29.4562C42.5799 29.1108 42.9085 28.8454 43.3213 28.6601C43.7425 28.4747 44.2186 28.382 44.7493 28.382Z" fill="black"/>
<path d="M53.5407 34.7513C53.3638 34.903 53.1448 35.0209 52.8836 35.1052C52.6224 35.181 52.3528 35.2189 52.0748 35.2189C51.4008 35.2189 50.8785 35.0378 50.5078 34.6755C50.1371 34.3132 49.9517 33.7951 49.9517 33.1211V29.4436H48.8143V28.4452H49.9517V26.9793H51.1649V28.4452H53.0858V29.4436H51.1649V33.0705C51.1649 33.4328 51.2534 33.7108 51.4303 33.9046C51.6156 34.0984 51.8768 34.1953 52.2138 34.1953C52.5845 34.1953 52.9004 34.09 53.1616 33.8793L53.5407 34.7513Z" fill="black"/>
<path d="M55.0075 28.4452H56.2207V35.1431H55.0075V28.4452ZM55.6141 27.1562C55.3782 27.1562 55.1802 27.0804 55.0201 26.9287C54.8685 26.7771 54.7926 26.5917 54.7926 26.3727C54.7926 26.1536 54.8685 25.9683 55.0201 25.8166C55.1802 25.6566 55.3782 25.5765 55.6141 25.5765C55.85 25.5765 56.0437 25.6524 56.1954 25.804C56.3555 25.9472 56.4355 26.1284 56.4355 26.3474C56.4355 26.5749 56.3555 26.7687 56.1954 26.9287C56.0437 27.0804 55.85 27.1562 55.6141 27.1562Z" fill="black"/>
<path d="M62.1135 28.382C62.9644 28.382 63.6384 28.6306 64.1354 29.1277C64.6409 29.6163 64.8937 30.3366 64.8937 31.2887V35.1431H63.6805V31.4277C63.6805 30.7789 63.5246 30.2903 63.2129 29.9617C62.9012 29.6332 62.4547 29.4689 61.8733 29.4689C61.2162 29.4689 60.6981 29.6626 60.3189 30.0502C59.9398 30.4293 59.7503 30.9769 59.7503 31.6931V35.1431H58.5371V28.4452H59.6997V29.4562C59.944 29.1108 60.2726 28.8454 60.6854 28.6601C61.1067 28.4747 61.5827 28.382 62.1135 28.382Z" fill="black"/>
<path d="M73.5831 28.4452V34.2332C73.5831 35.4042 73.2924 36.2678 72.7111 36.8239C72.1298 37.3883 71.262 37.6706 70.1078 37.6706C69.4759 37.6706 68.8736 37.5821 68.3007 37.4052C67.7278 37.2367 67.2644 36.9923 66.9105 36.6722L67.4919 35.737C67.8036 36.0066 68.1869 36.2173 68.6419 36.3689C69.1052 36.529 69.5813 36.609 70.0699 36.609C70.8534 36.609 71.4305 36.4237 71.8012 36.053C72.1804 35.6823 72.3699 35.1178 72.3699 34.3596V33.8288C72.0835 34.1742 71.7296 34.4354 71.3084 34.6123C70.8955 34.7808 70.4448 34.865 69.9562 34.865C69.3159 34.865 68.7345 34.7302 68.2122 34.4607C67.6983 34.1826 67.2939 33.7993 66.999 33.3106C66.7041 32.8136 66.5567 32.2491 66.5567 31.6172C66.5567 30.9854 66.7041 30.4251 66.999 29.9365C67.2939 29.4394 67.6983 29.056 68.2122 28.7864C68.7345 28.5168 69.3159 28.382 69.9562 28.382C70.4617 28.382 70.9292 28.4747 71.3589 28.6601C71.797 28.8454 72.1551 29.1192 72.4331 29.4815V28.4452H73.5831ZM70.0952 33.8035C70.5333 33.8035 70.925 33.7108 71.2705 33.5255C71.6243 33.3401 71.8981 33.0832 72.0919 32.7546C72.2941 32.4176 72.3952 32.0385 72.3952 31.6172C72.3952 30.9685 72.1804 30.4462 71.7507 30.0502C71.321 29.6458 70.7692 29.4436 70.0952 29.4436C69.4128 29.4436 68.8567 29.6458 68.427 30.0502C67.9974 30.4462 67.7825 30.9685 67.7825 31.6172C67.7825 32.0385 67.8794 32.4176 68.0732 32.7546C68.2754 33.0832 68.5492 33.3401 68.8946 33.5255C69.2485 33.7108 69.6487 33.8035 70.0952 33.8035Z" fill="black"/>
<path d="M85.9423 35.2821L84.767 34.1068C83.9835 34.865 82.9978 35.2442 81.8099 35.2442C81.2201 35.2442 80.6894 35.1473 80.2176 34.9535C79.7458 34.7597 79.3751 34.4901 79.1055 34.1447C78.8443 33.7909 78.7137 33.3907 78.7137 32.9442C78.7137 32.405 78.878 31.929 79.2066 31.5161C79.5436 31.0949 80.0954 30.6652 80.8621 30.2271C80.4745 29.8396 80.2007 29.4899 80.0406 29.1782C79.8806 28.8665 79.8005 28.5421 79.8005 28.2051C79.8005 27.607 80.0154 27.1267 80.445 26.7645C80.8831 26.4022 81.4645 26.221 82.189 26.221C82.863 26.221 83.398 26.3853 83.794 26.7139C84.1899 27.0425 84.3879 27.4932 84.3879 28.0661C84.3879 28.5126 84.2405 28.9128 83.9456 29.2667C83.6592 29.6205 83.1789 29.9912 82.5049 30.3788L84.6912 32.5524C84.944 32.0722 85.1251 31.5372 85.2346 30.9474L86.2077 31.2634C86.0561 32.0385 85.7991 32.7125 85.4368 33.2854L86.6247 34.4733L85.9423 35.2821ZM82.189 27.1057C81.793 27.1057 81.4813 27.2068 81.2538 27.409C81.0348 27.6027 80.9253 27.8597 80.9253 28.1798C80.9253 28.4073 80.9842 28.6264 81.1022 28.837C81.2286 29.0476 81.4687 29.3341 81.8225 29.6963C82.4038 29.3678 82.804 29.0855 83.0231 28.8496C83.2505 28.6137 83.3643 28.3568 83.3643 28.0787C83.3643 27.7839 83.259 27.548 83.0483 27.3711C82.8461 27.1941 82.5597 27.1057 82.189 27.1057ZM81.8857 34.2332C82.7619 34.2332 83.4822 33.9552 84.0467 33.3991L81.5319 30.8969C80.9253 31.2339 80.4998 31.5498 80.2555 31.8447C80.0196 32.1312 79.9016 32.4555 79.9016 32.8178C79.9016 33.239 80.0828 33.5802 80.445 33.8414C80.8157 34.1026 81.296 34.2332 81.8857 34.2332Z" fill="black"/>
</svg>
