<svg width="34" height="34" viewBox="0 0 34 34" fill="none" xmlns="http://www.w3.org/2000/svg">
<path d="M15.7531 2.34291C16.1271 2.1143 16.5428 2 17 2C17.1039 2 17.2078 2.01039 17.3117 2.03117C17.4364 2.03117 17.5507 2.05196 17.6546 2.09352C17.7585 2.1143 17.8521 2.14548 17.9352 2.18704C18.0391 2.2286 18.1326 2.28056 18.2158 2.34291C18.3197 2.38447 18.4132 2.44682 18.4963 2.52994C18.5794 2.59229 18.6522 2.66503 18.7145 2.74816C18.7977 2.83129 18.8704 2.91441 18.9327 2.99754C18.9951 3.08067 19.047 3.17419 19.0886 3.2781L22.7047 10.7909L31.028 12.0066C31.4436 12.069 31.8177 12.2352 32.1502 12.5054C32.4827 12.7755 32.7217 13.1185 32.8672 13.5341C33.1581 14.3862 32.9711 15.1447 32.3061 15.8097L26.2273 21.8885L27.6301 30.3365C27.7132 30.7521 27.6612 31.1574 27.4742 31.5522C27.3079 31.9471 27.0482 32.2692 26.6949 32.5186C26.3 32.7888 25.8532 32.9238 25.3544 32.9238C25.1674 32.9238 24.9803 32.9031 24.7933 32.8615C24.6063 32.8199 24.4192 32.7472 24.2322 32.6433L17 28.7466L9.73664 32.6433C9.40412 32.8303 9.04043 32.9238 8.64557 32.9238H8.39619C8.31306 32.9238 8.22993 32.9135 8.1468 32.8927C8.08446 32.8719 8.01172 32.8511 7.92859 32.8303C7.86624 32.8095 7.79351 32.7784 7.71038 32.7368C7.64803 32.716 7.57529 32.6849 7.49216 32.6433L7.30512 32.5186C6.95183 32.2692 6.68166 31.9471 6.49462 31.5522C6.32836 31.1574 6.2868 30.7521 6.36993 30.3365L7.77272 21.8885L1.69394 15.8097C1.02891 15.1447 0.841875 14.3862 1.13283 13.5341C1.2783 13.1185 1.51729 12.7755 1.84981 12.5054C2.18232 12.2352 2.5564 12.069 2.97205 12.0066L11.2953 10.7909L14.9114 3.2781C15.0984 2.88324 15.379 2.57151 15.7531 2.34291Z" fill="#ED6D1F"/>
</svg>
