<svg width="34" height="34" viewBox="0 0 34 34" fill="none" xmlns="http://www.w3.org/2000/svg">
<path d="M17 3.90157L21.2707 12.8171L31.028 14.2511L23.9828 21.2962L24.201 22.699L25.635 31.1158L17 26.5022L8.36501 31.1158L9.79898 22.699L10.0172 21.2962L2.97205 14.2511L12.6981 12.8171L13.3527 11.4767L17 3.90157ZM17 2C16.5428 2 16.1271 2.1143 15.7531 2.34291C15.379 2.57151 15.0984 2.88324 14.9114 3.2781L11.2953 10.7909L2.97205 12.0066C2.5564 12.069 2.18232 12.2352 1.84981 12.5054C1.51729 12.7755 1.2783 13.1185 1.13283 13.5341C0.841875 14.3862 1.02891 15.1447 1.69394 15.8097L7.77272 21.8885L6.36993 30.3365C6.2868 30.7521 6.32836 31.1574 6.49462 31.5522C6.68166 31.9471 6.95183 32.2692 7.30512 32.5186C7.36747 32.5602 7.42982 32.6017 7.49216 32.6433C7.57529 32.6848 7.64803 32.716 7.71038 32.7368C7.79351 32.7784 7.86624 32.8095 7.92859 32.8303C8.01172 32.8511 8.08446 32.8719 8.1468 32.8927C8.22993 32.9135 8.31306 32.9238 8.39619 32.9238C8.47932 32.9238 8.56244 32.9238 8.64557 32.9238C9.04043 32.9238 9.40412 32.8303 9.73664 32.6433L17 28.7466L24.2322 32.6433C24.4192 32.7472 24.6063 32.8199 24.7933 32.8615C24.9803 32.9031 25.1674 32.9238 25.3544 32.9238C25.8532 32.9238 26.3 32.7888 26.6949 32.5186C27.0482 32.2692 27.3079 31.9471 27.4742 31.5522C27.6612 31.1574 27.7132 30.7521 27.6301 30.3365L26.2273 21.8885L32.3061 15.8097C32.9711 15.1447 33.1581 14.3862 32.8672 13.5341C32.7217 13.1185 32.4827 12.7755 32.1502 12.5054C31.8177 12.2352 31.4436 12.069 31.028 12.0066L22.7047 10.7909L19.0886 3.2781C19.047 3.17419 18.9951 3.08067 18.9327 2.99754C18.8704 2.91441 18.7977 2.83129 18.7145 2.74816C18.6522 2.66503 18.5794 2.59229 18.4963 2.52994C18.4132 2.44682 18.3197 2.38447 18.2158 2.34291C18.1326 2.28056 18.0391 2.2286 17.9352 2.18704C17.8521 2.14548 17.7585 2.1143 17.6546 2.09352C17.5507 2.05196 17.4364 2.03117 17.3117 2.03117C17.2078 2.01039 17.1039 2 17 2Z" fill="#ED6D1F"/>
</svg>
