<svg width="202" height="47" viewBox="0 0 202 47" fill="none" xmlns="http://www.w3.org/2000/svg">
<path fill-rule="evenodd" clip-rule="evenodd" d="M168.288 25.0367V3.04055H195.937C198.526 3.04055 200.626 5.1442 200.626 7.73691V20.3404C200.627 21.5849 200.133 22.7787 199.253 23.6593C198.374 24.54 197.181 25.0354 195.937 25.0367H168.288ZM192.908 7.04184H173.664V21.0355H192.908C193.216 21.035 193.521 20.9739 193.805 20.8557C194.09 20.7374 194.348 20.5644 194.565 20.3463C194.783 20.1283 194.955 19.8695 195.073 19.5849C195.19 19.3002 195.25 18.9952 195.25 18.6873V9.39169C195.25 9.08362 195.19 8.77845 195.073 8.4936C194.956 8.20875 194.783 7.94981 194.566 7.73158C194.349 7.51336 194.09 7.34012 193.806 7.22177C193.521 7.10342 193.216 7.04228 192.908 7.04184Z" fill="url(#paint0_linear_206_2557)"/>
<path d="M7.74196 3.07238C6.50736 3.07371 5.32383 3.56532 4.45162 4.4391C3.57941 5.31288 3.08993 6.49729 3.09082 7.73189V20.2315C3.09038 21.4657 3.5801 22.6495 4.45231 23.5226C5.32452 24.3958 6.5078 24.8868 7.74196 24.8877H35.1681V20.9216H10.7484C10.4429 20.9213 10.1405 20.8609 9.85847 20.7438C9.5764 20.6267 9.32017 20.4551 9.10443 20.2389C8.8887 20.0227 8.71768 19.7661 8.60115 19.4838C8.48462 19.2014 8.42487 18.8989 8.42531 18.5935V15.7981H33.2035V11.8303H8.42531V9.36825C8.42531 8.08194 9.46374 7.04184 10.75 7.04184H35.1698V3.07238H7.74029H7.74196Z" fill="url(#paint1_linear_206_2557)"/>
<path d="M60.4621 11.2558L50.1733 3.27503H43.1941L56.9716 13.9624L43.1924 24.6482H50.1733L60.4621 16.669L70.7525 24.6498H77.7301L63.9508 13.9624L77.7301 3.27671H70.7525L60.4621 11.2558Z" fill="url(#paint2_linear_206_2557)"/>
<path d="M85.7561 7.75035C85.7557 7.13912 85.8756 6.53378 86.1091 5.9689C86.3426 5.40403 86.6851 4.89067 87.117 4.45815C87.5489 4.02563 88.0618 3.68241 88.6263 3.4481C89.1908 3.21378 89.796 3.09295 90.4072 3.09251H117.833V7.0603H93.412C92.7948 7.06075 92.2031 7.30622 91.7669 7.74277C91.3306 8.17933 91.0856 8.77123 91.0856 9.38839V11.8488H115.869V15.8182H91.0856V18.6136C91.086 19.2305 91.3313 19.822 91.7674 20.2582C92.2036 20.6943 92.7951 20.9396 93.412 20.94H117.832V24.9095H90.4089C89.1748 24.9086 87.9915 24.4176 87.1193 23.5445C86.2471 22.6713 85.7573 21.4875 85.7578 20.2533V7.75035H85.7561Z" fill="url(#paint3_linear_206_2557)"/>
<path d="M131.738 3.10885C130.504 3.11019 129.32 3.60179 128.448 4.47557C127.576 5.34935 127.086 6.53377 127.087 7.76837V20.2697C127.087 21.5037 127.577 22.6872 128.449 23.5603C129.321 24.4334 130.504 24.9245 131.738 24.9258H159.164V20.9597H134.745C134.127 20.9597 133.535 20.7144 133.099 20.2778C132.662 19.8412 132.417 19.2491 132.417 18.6316V15.8346H157.198V11.8651H132.418V9.4064C132.418 9.10067 132.478 8.79789 132.595 8.51536C132.712 8.23281 132.883 7.97605 133.099 7.75971C133.315 7.54337 133.572 7.3717 133.854 7.2545C134.136 7.1373 134.439 7.07686 134.745 7.07664H159.164V3.10885H131.738Z" fill="url(#paint4_linear_206_2557)"/>
<path fill-rule="evenodd" clip-rule="evenodd" d="M14.413 41.4023C14.413 42.6065 13.8469 43.1475 12.6259 43.1475H3.04053V35.4163H12.3998C13.6224 35.4163 14.1869 35.9572 14.1869 37.1615V37.7242C14.1869 38.488 13.9256 38.972 13.4064 39.1613C14.073 39.3271 14.4113 39.8229 14.4113 40.6737V41.4023H14.413ZM11.5657 37.6807C11.5657 37.3172 11.44 37.195 11.0666 37.195H5.66339V38.4763H11.0666C11.44 38.4763 11.564 38.354 11.564 37.9905V37.6807H11.5657ZM11.7901 40.4091C11.7901 40.0439 11.6662 39.9234 11.2927 39.9234H5.66339V41.3688H11.291C11.6662 41.3688 11.7901 41.2482 11.7901 40.8831V40.4091Z" fill="url(#paint5_linear_206_2557)"/>
<path fill-rule="evenodd" clip-rule="evenodd" d="M18.6874 35.4163C17.1381 35.4163 16.4028 36.113 16.4028 37.6472V40.9166C16.4028 42.4507 17.1381 43.1475 18.6874 43.1475H25.9429C27.4922 43.1475 28.2258 42.4507 28.2258 40.9166V37.6472C28.2258 36.113 27.4922 35.4163 25.9429 35.4163H18.6874ZM19.7492 41.1276C19.2066 41.1276 19.0257 40.9501 19.0257 40.4208V38.143C19.0257 37.6137 19.2066 37.4378 19.7492 37.4378H24.8811C25.412 37.4378 25.6029 37.6137 25.6029 38.1446V40.4191C25.6029 40.9501 25.412 41.1259 24.8811 41.1259H19.7492V41.1276Z" fill="url(#paint6_linear_206_2557)"/>
<path fill-rule="evenodd" clip-rule="evenodd" d="M41.6013 37.4261C41.6013 36.0125 40.99 35.4163 39.5412 35.4163H30.3428V43.1475H32.964V40.6637H36.57L38.7406 43.1475H41.9396L39.5663 40.4844C41.0017 40.4761 41.6013 39.8899 41.6013 38.4746V37.4261ZM38.9785 38.364C38.9785 38.8163 38.8311 38.962 38.3688 38.962H32.964V37.1732H38.3688C38.8311 37.1732 38.9785 37.3172 38.9785 37.7678V38.364Z" fill="url(#paint7_linear_206_2557)"/>
<path d="M46.2358 38.1329L53.267 43.1475H55.4142V35.4163H52.8817V40.3521L45.9544 35.4163H43.7051V43.1475H46.2358V38.1329Z" fill="url(#paint8_linear_206_2557)"/>
<path d="M62.1538 35.4163H72.4376V37.3926H64.7767V38.699H71.987V40.4861H64.7767V43.1475H62.1538V35.4163Z" fill="url(#paint9_linear_206_2557)"/>
<path fill-rule="evenodd" clip-rule="evenodd" d="M74.1594 37.6472C74.1594 36.113 74.893 35.4163 76.4423 35.4163H83.6979C85.2471 35.4163 85.9824 36.113 85.9824 37.6472V40.9166C85.9824 42.4507 85.2471 43.1475 83.6979 43.1475H76.4423C74.893 43.1475 74.1594 42.4507 74.1594 40.9166V37.6472ZM76.7823 40.4191C76.7823 40.9501 76.9615 41.1259 77.5042 41.1259H82.636C83.1669 41.1259 83.3595 40.9501 83.3595 40.4208V38.143C83.3595 37.6137 83.1669 37.4378 82.636 37.4378H77.5058C76.9632 37.4378 76.784 37.6137 76.784 38.1446V40.4191H76.7823Z" fill="url(#paint10_linear_206_2557)"/>
<path fill-rule="evenodd" clip-rule="evenodd" d="M97.2978 35.4163C98.7449 35.4163 99.3545 36.0125 99.3545 37.4261V38.4763C99.3545 39.8899 98.7549 40.4761 97.3195 40.4861L99.6962 43.1475H96.4972L94.3265 40.6637H90.7205V43.1475H88.0977V35.4163H97.2978ZM96.122 38.962C96.5859 38.962 96.7333 38.8179 96.7333 38.364V37.7695C96.7333 37.3172 96.5859 37.1732 96.122 37.1732H90.7205V38.9603H96.122V38.962Z" fill="url(#paint11_linear_206_2557)"/>
<path d="M112.561 39.724L116.822 35.4163H119.049V43.1475H116.514V38.6086L113.226 41.9433H111.8L108.513 38.6103V43.1475H105.98V35.4163H108.308L112.557 39.724H112.561Z" fill="url(#paint12_linear_206_2557)"/>
<path fill-rule="evenodd" clip-rule="evenodd" d="M121.177 37.6472C121.177 36.113 121.91 35.4163 123.458 35.4163H130.713C132.263 35.4163 132.998 36.113 132.998 37.6472V40.9166C132.998 42.4507 132.263 43.1475 130.713 43.1475H123.458C121.91 43.1475 121.177 42.4507 121.177 40.9166V37.6472ZM123.798 40.4191C123.798 40.9501 123.979 41.1259 124.521 41.1259H129.651C130.184 41.1259 130.377 40.9501 130.377 40.4208V38.143C130.377 37.6137 130.184 37.4378 129.651 37.4378H124.521C123.979 37.4378 123.798 37.6137 123.798 38.1446V40.4191Z" fill="url(#paint13_linear_206_2557)"/>
<path fill-rule="evenodd" clip-rule="evenodd" d="M144.317 35.4163C145.76 35.4163 146.372 36.0125 146.372 37.4261V38.4763C146.372 39.8899 145.772 40.4761 144.337 40.4861L146.712 43.1475H143.513L141.342 40.6637H137.734V43.1475H135.112V35.4163H144.313H144.317ZM143.139 38.962C143.603 38.962 143.749 38.8179 143.749 38.364V37.7695C143.749 37.3172 143.603 37.1732 143.139 37.1732H137.734V38.9603H143.138L143.139 38.962Z" fill="url(#paint14_linear_206_2557)"/>
<path d="M158.875 35.4163H148.475V43.1475H158.987V41.2716H151.1V39.9987H158.424V38.4076H151.1V37.2938H158.876V35.4179L158.875 35.4163Z" fill="url(#paint15_linear_206_2557)"/>
<defs>
<linearGradient id="paint0_linear_206_2557" x1="101.859" y1="3.04055" x2="101.859" y2="25.0367" gradientUnits="userSpaceOnUse">
<stop stop-color="#E3B69F"/>
<stop offset="1" stop-color="#C38A6E"/>
</linearGradient>
<linearGradient id="paint1_linear_206_2557" x1="101.858" y1="3.04056" x2="101.858" y2="25.0367" gradientUnits="userSpaceOnUse">
<stop stop-color="#E3B69F"/>
<stop offset="1" stop-color="#C38A6E"/>
</linearGradient>
<linearGradient id="paint2_linear_206_2557" x1="101.858" y1="3.04055" x2="101.858" y2="25.0367" gradientUnits="userSpaceOnUse">
<stop stop-color="#E3B69F"/>
<stop offset="1" stop-color="#C38A6E"/>
</linearGradient>
<linearGradient id="paint3_linear_206_2557" x1="101.858" y1="3.04059" x2="101.858" y2="25.0368" gradientUnits="userSpaceOnUse">
<stop stop-color="#E3B69F"/>
<stop offset="1" stop-color="#C38A6E"/>
</linearGradient>
<linearGradient id="paint4_linear_206_2557" x1="101.858" y1="3.04018" x2="101.858" y2="25.0364" gradientUnits="userSpaceOnUse">
<stop stop-color="#E3B69F"/>
<stop offset="1" stop-color="#C38A6E"/>
</linearGradient>
<linearGradient id="paint5_linear_206_2557" x1="81.0145" y1="35.4163" x2="81.0145" y2="43.1475" gradientUnits="userSpaceOnUse">
<stop stop-color="#E3B69F"/>
<stop offset="1" stop-color="#C38A6E"/>
</linearGradient>
<linearGradient id="paint6_linear_206_2557" x1="81.0147" y1="35.4163" x2="81.0147" y2="43.1475" gradientUnits="userSpaceOnUse">
<stop stop-color="#E3B69F"/>
<stop offset="1" stop-color="#C38A6E"/>
</linearGradient>
<linearGradient id="paint7_linear_206_2557" x1="81.0146" y1="35.4163" x2="81.0146" y2="43.1475" gradientUnits="userSpaceOnUse">
<stop stop-color="#E3B69F"/>
<stop offset="1" stop-color="#C38A6E"/>
</linearGradient>
<linearGradient id="paint8_linear_206_2557" x1="81.0147" y1="35.4163" x2="81.0147" y2="43.1475" gradientUnits="userSpaceOnUse">
<stop stop-color="#E3B69F"/>
<stop offset="1" stop-color="#C38A6E"/>
</linearGradient>
<linearGradient id="paint9_linear_206_2557" x1="81.0146" y1="35.4163" x2="81.0146" y2="43.1475" gradientUnits="userSpaceOnUse">
<stop stop-color="#E3B69F"/>
<stop offset="1" stop-color="#C38A6E"/>
</linearGradient>
<linearGradient id="paint10_linear_206_2557" x1="81.0147" y1="35.4163" x2="81.0147" y2="43.1475" gradientUnits="userSpaceOnUse">
<stop stop-color="#E3B69F"/>
<stop offset="1" stop-color="#C38A6E"/>
</linearGradient>
<linearGradient id="paint11_linear_206_2557" x1="81.0146" y1="35.4163" x2="81.0146" y2="43.1475" gradientUnits="userSpaceOnUse">
<stop stop-color="#E3B69F"/>
<stop offset="1" stop-color="#C38A6E"/>
</linearGradient>
<linearGradient id="paint12_linear_206_2557" x1="81.0145" y1="35.4163" x2="81.0145" y2="43.1475" gradientUnits="userSpaceOnUse">
<stop stop-color="#E3B69F"/>
<stop offset="1" stop-color="#C38A6E"/>
</linearGradient>
<linearGradient id="paint13_linear_206_2557" x1="81.0145" y1="35.4163" x2="81.0145" y2="43.1475" gradientUnits="userSpaceOnUse">
<stop stop-color="#E3B69F"/>
<stop offset="1" stop-color="#C38A6E"/>
</linearGradient>
<linearGradient id="paint14_linear_206_2557" x1="81.0146" y1="35.4163" x2="81.0146" y2="43.1475" gradientUnits="userSpaceOnUse">
<stop stop-color="#E3B69F"/>
<stop offset="1" stop-color="#C38A6E"/>
</linearGradient>
<linearGradient id="paint15_linear_206_2557" x1="81.0145" y1="35.4163" x2="81.0145" y2="43.1475" gradientUnits="userSpaceOnUse">
<stop stop-color="#E3B69F"/>
<stop offset="1" stop-color="#C38A6E"/>
</linearGradient>
</defs>
</svg>
