<svg width="26" height="26" viewBox="0 0 26 26" fill="none" xmlns="http://www.w3.org/2000/svg">
<rect width="26" height="26" rx="13" fill="#26B7BC"/>
<path d="M16.8066 6.43896C15.6414 5.75765 14.3726 5.41699 13.0001 5.41699C11.6276 5.41699 10.3588 5.75765 9.1936 6.43896C8.02846 7.11041 7.10522 8.0287 6.42391 9.19385C5.75247 10.359 5.41675 11.6278 5.41675 13.0003C5.41675 14.3728 5.75247 15.6417 6.42391 16.8068C7.10522 17.972 8.02846 18.8952 9.1936 19.5765C10.3588 20.2479 11.6276 20.5837 13.0001 20.5837C14.3726 20.5837 15.6414 20.2479 16.8066 19.5765C17.9717 18.8952 18.89 17.972 19.5614 16.8068C20.2428 15.6417 20.5834 14.3728 20.5834 13.0003C20.5834 11.6278 20.2428 10.359 19.5614 9.19385C18.89 8.0287 17.9717 7.11041 16.8066 6.43896ZM13.0001 19.6506C12.2793 19.6506 11.5782 19.5419 10.8969 19.3247C10.2255 19.0976 9.61819 18.7767 9.07511 18.362C8.53204 17.9473 8.05314 17.4684 7.63843 16.9253C7.23359 16.3822 6.91762 15.775 6.69051 15.1035C6.47328 14.4222 6.36466 13.7211 6.36466 13.0003C6.36466 12.1018 6.53746 11.2427 6.88306 10.4232C7.23853 9.60362 7.71248 8.89762 8.30493 8.30518C8.89738 7.71273 9.60338 7.24371 10.4229 6.89811C11.2425 6.54264 12.1015 6.36491 13.0001 6.36491C13.8986 6.36491 14.7577 6.54264 15.5772 6.89811C16.3968 7.24371 17.1028 7.71273 17.6952 8.30518C18.2877 8.89762 18.7567 9.60362 19.1023 10.4232C19.4578 11.2427 19.6355 12.1018 19.6355 13.0003C19.6355 13.8989 19.4578 14.7579 19.1023 15.5775C18.7567 16.397 18.2877 17.108 17.6952 17.7103C17.1028 18.3027 16.3968 18.7767 15.5772 19.1322C14.7577 19.4778 13.8986 19.6506 13.0001 19.6506ZM13.474 12.8078V8.26074C13.474 8.13238 13.4247 8.02376 13.3259 7.9349C13.2371 7.83615 13.1284 7.78678 13.0001 7.78678C12.8717 7.78678 12.7582 7.83615 12.6594 7.9349C12.5706 8.02376 12.5261 8.13238 12.5261 8.26074V13.0003C12.5261 13.1386 12.5755 13.2521 12.6742 13.341C12.6742 13.341 12.6742 13.3459 12.6742 13.3558C12.6841 13.3657 12.689 13.3706 12.689 13.3706L15.044 15.7108C15.1329 15.8095 15.2415 15.8589 15.3699 15.8589C15.5081 15.8589 15.6217 15.8145 15.7105 15.7256C15.7994 15.6268 15.8438 15.5133 15.8438 15.3849C15.8438 15.2467 15.7994 15.1331 15.7105 15.0443L13.474 12.8078Z" fill="white"/>
</svg>
