<svg width="26" height="26" viewBox="0 0 26 26" fill="none" xmlns="http://www.w3.org/2000/svg">
<rect width="26" height="26" rx="13" fill="#9E9691"/>
<path d="M13.0677 4.33301C12.1875 4.33301 11.3411 4.51356 10.5286 4.87467C9.72743 5.2245 9.03342 5.69846 8.44661 6.29655C7.85981 6.88336 7.38585 7.58301 7.02474 8.39551C6.67491 9.20801 6.5 10.0544 6.5 10.9346C6.5 11.4311 6.56771 11.9502 6.70312 12.4919C6.83854 13.0335 6.99653 13.5357 7.17708 13.9984C7.35764 14.461 7.61719 14.9745 7.95573 15.5387C8.29427 16.103 8.59332 16.5826 8.85286 16.9775C9.1237 17.3612 9.48481 17.8352 9.9362 18.3994C10.3876 18.9524 10.7374 19.3755 10.9857 19.6689C11.2339 19.9623 11.5838 20.3686 12.0352 20.8877C12.1706 21.0457 12.2721 21.1585 12.3398 21.2262C12.3624 21.2601 12.4019 21.2996 12.4583 21.3447C12.5148 21.4012 12.6163 21.4689 12.763 21.5479C12.9097 21.6268 13.0508 21.6663 13.1862 21.6663H13.237C13.553 21.6663 13.8351 21.5196 14.0833 21.2262C17.6944 17.0735 19.5 13.6429 19.5 10.9346C19.5 9.05002 18.9245 7.48709 17.7734 6.24577C16.5773 4.97059 15.0087 4.33301 13.0677 4.33301ZM13.2708 20.4984C13.2595 20.5209 13.237 20.5435 13.2031 20.5661C13.1806 20.5435 13.158 20.5209 13.1354 20.4984L12.8477 20.1768C12.4188 19.6802 12.0859 19.2965 11.849 19.0257C11.612 18.7436 11.2791 18.3373 10.8503 17.807C10.4214 17.2766 10.0829 16.8308 9.83464 16.4697C9.58637 16.0973 9.29861 15.6516 8.97135 15.1325C8.6441 14.6021 8.39019 14.1281 8.20964 13.7106C8.04036 13.2818 7.89366 12.8248 7.76953 12.3395C7.6454 11.843 7.58333 11.3747 7.58333 10.9346C7.58333 9.9528 7.8316 9.03874 8.32813 8.19238C8.82465 7.33474 9.49045 6.65766 10.3255 6.16113C11.1719 5.66461 12.0859 5.41634 13.0677 5.41634C13.9592 5.41634 14.7548 5.57433 15.4544 5.8903C16.1541 6.19499 16.7127 6.61252 17.1302 7.1429C17.559 7.67329 17.8806 8.26009 18.0951 8.90332C18.3095 9.54655 18.4167 10.2236 18.4167 10.9346C18.4167 13.3721 16.7014 16.56 13.2708 20.4984ZM13.0169 7.59994C12.6671 7.59994 12.3229 7.65636 11.9844 7.76921C11.6571 7.88205 11.3581 8.04004 11.0872 8.24316C10.8277 8.435 10.5964 8.66634 10.3932 8.93717C10.1901 9.20801 10.0321 9.50705 9.91927 9.83431C9.81771 10.1616 9.76693 10.5001 9.76693 10.8499C9.76693 11.7527 10.0829 12.5201 10.7148 13.152C11.3581 13.784 12.1254 14.0999 13.0169 14.0999C13.9197 14.0999 14.6871 13.784 15.319 13.152C15.951 12.5201 16.2669 11.7527 16.2669 10.8499C16.2669 10.4098 16.1823 9.9923 16.013 9.59733C15.8438 9.19108 15.6124 8.8469 15.319 8.56478C15.0256 8.27138 14.6758 8.04004 14.2695 7.87077C13.8746 7.69021 13.457 7.59994 13.0169 7.59994ZM13.0169 13.0166C12.4188 13.0166 11.9054 12.8022 11.4766 12.3734C11.0477 11.9446 10.8333 11.4311 10.8333 10.833C10.8333 10.2349 11.0421 9.72711 11.4596 9.30957C11.8885 8.88075 12.4019 8.66634 13 8.66634C13.5981 8.66634 14.1059 8.88075 14.5234 9.30957C14.9523 9.72711 15.1667 10.2349 15.1667 10.833C15.1667 11.5778 14.8676 12.1702 14.2695 12.6104C13.8971 12.8812 13.4796 13.0166 13.0169 13.0166Z" fill="white"/>
</svg>
