<svg width="26" height="26" viewBox="0 0 26 26" fill="none" xmlns="http://www.w3.org/2000/svg">
<rect width="26" height="26" rx="13" fill="#712532"/>
<path d="M20.1976 16.8437C20.1582 16.8043 20.0352 16.7156 19.8284 16.5776C19.6217 16.4397 19.3806 16.282 19.1049 16.1046C18.8293 15.9174 18.5537 15.7351 18.2781 15.5577C18.0025 15.3704 17.7564 15.2078 17.5398 15.0699C17.3233 14.922 17.1855 14.8333 17.1264 14.8038C17.087 14.7742 17.0378 14.7496 16.9788 14.7299C16.9295 14.7101 16.8754 14.6954 16.8163 14.6855C16.7671 14.6757 16.713 14.6707 16.6539 14.6707C16.6146 14.6707 16.5801 14.6757 16.5506 14.6855C16.521 14.6855 16.4866 14.6904 16.4472 14.7003C16.4177 14.7003 16.3832 14.7052 16.3439 14.7151C16.3045 14.7249 16.2651 14.7348 16.2257 14.7446C16.1962 14.7545 16.1618 14.7693 16.1224 14.789C16.0928 14.7988 16.0584 14.8136 16.019 14.8333C15.9796 14.8432 15.9452 14.858 15.9157 14.8777C15.7286 14.9762 15.2808 15.2275 14.572 15.6316C13.9716 15.2078 13.2235 14.5475 12.3277 13.6507C11.4418 12.7638 10.7872 12.0198 10.364 11.4186C10.7675 10.6992 11.0185 10.2508 11.117 10.0734C11.3729 9.58068 11.3975 9.1717 11.1908 8.84649C11.0825 8.67896 10.7331 8.15172 10.1425 7.26478C9.56171 6.37784 9.23196 5.88017 9.15321 5.77177C8.98587 5.53525 8.72994 5.41699 8.38542 5.41699C8.29683 5.41699 8.20824 5.42685 8.11965 5.44656C8.0409 5.46627 7.95723 5.49583 7.86864 5.53525C7.78989 5.56482 7.71114 5.60423 7.63239 5.65351C7.58318 5.69293 7.49951 5.75699 7.38139 5.84568C7.27311 5.93437 7.091 6.08712 6.83507 6.30393C6.58899 6.51088 6.36751 6.71784 6.17064 6.92479C5.97377 7.12189 5.79659 7.34362 5.63909 7.58999C5.4816 7.82651 5.40777 8.03346 5.41762 8.21085C5.42746 8.62476 5.50129 9.0633 5.63909 9.52648C5.7769 9.9798 5.96393 10.4331 6.20017 10.8865C6.43641 11.3398 6.69727 11.7882 6.98273 12.2316C7.27803 12.6751 7.60779 13.1186 7.97199 13.5621C8.3362 14.0055 8.68564 14.4145 9.02032 14.789C9.355 15.1536 9.70936 15.5232 10.0834 15.8977C10.6642 16.4791 11.2449 17.0211 11.8257 17.5237C12.4065 18.0165 13.0365 18.5043 13.7157 18.9872C14.4047 19.4602 15.0987 19.8396 15.7975 20.1254C16.5063 20.4112 17.1707 20.5639 17.7908 20.5837H17.8056C17.9729 20.5837 18.1747 20.5048 18.411 20.3471C18.6472 20.1895 18.8638 20.0071 19.0606 19.8002C19.2674 19.6031 19.4741 19.3863 19.6808 19.1498C19.8973 18.9034 20.0499 18.7211 20.1385 18.6028C20.2271 18.4846 20.2862 18.4057 20.3157 18.3663C20.6208 17.9327 20.6651 17.5188 20.4486 17.1246C20.3797 17.0063 20.296 16.9127 20.1976 16.8437ZM19.5479 17.8046C19.2526 18.2185 18.9228 18.6127 18.5586 18.9872C18.1944 19.3518 17.9287 19.5686 17.7613 19.6376C16.8754 19.5883 15.8271 19.1892 14.6163 18.4402C13.4154 17.6814 12.1259 16.6121 10.7478 15.2325C9.37961 13.8528 8.31652 12.5618 7.55857 11.3595C6.80062 10.1473 6.40196 9.10272 6.36259 8.22563C6.42165 8.0581 6.63328 7.79202 6.99749 7.42739C7.37154 7.06276 7.76528 6.73262 8.17871 6.43697C8.19839 6.41726 8.21808 6.40248 8.23777 6.39263C8.25745 6.38277 8.27714 6.37784 8.29683 6.37784C8.32636 6.36799 8.35589 6.36306 8.38542 6.36306C8.39526 6.36306 8.40511 6.36799 8.41495 6.37784C9.00556 7.22536 9.65523 8.20592 10.364 9.31953C10.364 9.39837 10.3344 9.50184 10.2754 9.62996C10.2557 9.65952 10.2311 9.70387 10.2015 9.763C10.172 9.82213 10.1326 9.89111 10.0834 9.96995C10.044 10.0488 9.99482 10.1375 9.93576 10.236C9.8767 10.3346 9.81272 10.443 9.74382 10.5612C9.68476 10.6795 9.61585 10.8076 9.5371 10.9456L9.2418 11.463L9.5814 11.9508C10.044 12.6111 10.738 13.4044 11.6633 14.3307C12.5886 15.2571 13.3761 15.9469 14.0257 16.4003L14.513 16.755L15.0445 16.4594C15.33 16.2919 15.5958 16.1391 15.8418 16.0011C16.0879 15.8533 16.2602 15.7597 16.3586 15.7203C16.4669 15.6513 16.5653 15.6168 16.6539 15.6168H16.6687C17.466 16.1194 18.4504 16.7747 19.6217 17.5828C19.6316 17.6518 19.607 17.7257 19.5479 17.8046Z" fill="white"/>
</svg>
